<?xml version="1.0" encoding="UTF-8" standalone="no"?>
<svg
   version="1.1"
   viewBox="-5 -10 512 512"
   id="svg15"
   sodipodi:docname="amulet.svg"
   width="512"
   height="512"
   inkscape:version="1.4.2 (f4327f4, 2025-05-13)"
   inkscape:export-filename="amulet.png"
   inkscape:export-xdpi="96"
   inkscape:export-ydpi="96"
   xmlns:inkscape="http://www.inkscape.org/namespaces/inkscape"
   xmlns:sodipodi="http://sodipodi.sourceforge.net/DTD/sodipodi-0.dtd"
   xmlns="http://www.w3.org/2000/svg"
   xmlns:svg="http://www.w3.org/2000/svg">
  <defs
     id="defs15" />
  <sodipodi:namedview
     id="namedview15"
     pagecolor="#505050"
     bordercolor="#eeeeee"
     borderopacity="1"
     inkscape:showpageshadow="0"
     inkscape:pageopacity="0"
     inkscape:pagecheckerboard="0"
     inkscape:deskcolor="#d1d1d1"
     inkscape:zoom="0.78371002"
     inkscape:cx="161.41174"
     inkscape:cy="230.31478"
     inkscape:window-width="2560"
     inkscape:window-height="1377"
     inkscape:window-x="-8"
     inkscape:window-y="-8"
     inkscape:window-maximized="1"
     inkscape:current-layer="svg15" />
  <g
     id="g15"
     transform="matrix(5.8514286,0,0,5.8514286,-41.571428,-46.571427)">
    <path
       d="m 29.348,17.359 -2.5742,-4.457 c -5.6016,3.5195 -10.352,8.2695 -13.875,13.875 l 4.457,2.5742 c 3.0664,-4.8281 7.168,-8.9297 11.992,-11.992 z"
       id="path1"
       style="fill:#ffffff" />
    <path
       d="M 15.789,32.055 11.332,29.4808 C 8.2968,35.1722 6.4922,41.6058 6.25,48.4378 h 5.1406 c 0.23828,-5.8945 1.8008,-11.453 4.3984,-16.383 z"
       id="path2"
       style="fill:#ffffff" />
    <path
       d="m 29.48,88.668 c 5.6914,3.0352 12.125,4.8398 18.957,5.082 V 88.6094 C 42.5425,88.37502 36.988,86.8125 32.054,84.2149 Z"
       id="path3"
       style="fill:#ffffff" />
    <path
       d="m 17.359,70.652 -4.457,2.5742 c 3.5195,5.6016 8.2695,10.352 13.875,13.875 l 2.5742,-4.457 c -4.8281,-3.0664 -8.9297,-7.168 -11.992,-11.992 z"
       id="path4"
       style="fill:#ffffff" />
    <path
       d="M 70.52,11.332 C 64.8286,8.2968 58.395,6.4922 51.563,6.25 v 5.1406 c 5.8945,0.23438 11.449,1.7969 16.383,4.3945 z"
       id="path5"
       style="fill:#ffffff" />
    <path
       d="M 48.438,11.391 V 6.2504 c -6.8281,0.24219 -13.266,2.0469 -18.957,5.082 l 2.5742,4.457 c 4.9297,-2.5977 10.488,-4.1602 16.383,-4.3984 z"
       id="path6"
       style="fill:#ffffff" />
    <path
       d="m 88.609,48.438 h 5.1406 C 93.50741,41.6099 91.7027,35.172 88.6676,29.481 l -4.457,2.5742 c 2.5977,4.9297 4.1602,10.488 4.3984,16.383 z"
       id="path7"
       style="fill:#ffffff" />
    <path
       d="m 82.641,29.348 4.457,-2.5742 C 83.5785,21.1722 78.8285,16.4218 73.223,12.8988 l -2.5742,4.457 c 4.8281,3.0664 8.9297,7.168 11.992,11.992 z"
       id="path8"
       style="fill:#ffffff" />
    <path
       d="M 11.391,51.562 H 6.2504 c 0.24219,6.8281 2.0469,13.266 5.082,18.957 l 4.457,-2.5742 C 13.1917,63.0151 11.6292,57.4568 11.391,51.5618 Z"
       id="path9"
       style="fill:#ffffff" />
    <path
       d="m 51.562,88.609 v 5.1406 c 6.8281,-0.24219 13.266,-2.0469 18.957,-5.082 l -2.5742,-4.457 c -4.9297,2.5977 -10.488,4.1602 -16.383,4.3984 z"
       id="path10"
       style="fill:#ffffff" />
    <path
       d="m 70.652,82.641 2.5742,4.457 c 5.6016,-3.5195 10.352,-8.2695 13.875,-13.875 l -4.457,-2.5742 c -3.0664,4.8281 -7.168,8.9297 -11.992,11.992 z"
       id="path11"
       style="fill:#ffffff" />
    <path
       d="m 84.211,67.945 4.457,2.5742 c 3.0352,-5.6914 4.8398,-12.125 5.082,-18.957 h -5.1406 c -0.23828,5.8945 -1.8008,11.453 -4.3984,16.383 z"
       id="path12"
       style="fill:#ffffff" />
    <path
       d="M 85.52,50 C 85.52,30.414 69.586,14.48 50,14.48 30.414,14.48 14.48,30.414 14.48,50 14.48,69.586 30.414,85.52 50,85.52 69.586,85.52 85.52,69.586 85.52,50 Z M 59.332,32.367 66.3047,25.3943 c 0.60937,-0.60938 1.6016,-0.60938 2.2109,0 0.6093,0.60938 0.60938,1.6016 0,2.2109 l -6.9727,6.9727 c -0.30469,0.30469 -0.70703,0.45703 -1.1055,0.45703 -0.39847,0 -0.80078,-0.15234 -1.1055,-0.45703 -0.61328,-0.61328 -0.61328,-1.6016 0,-2.2109 z M 31.484,25.3943 c 0.60938,-0.60938 1.6016,-0.60938 2.2109,0 l 6.9727,6.9727 c 0.60938,0.60937 0.60938,1.6016 0,2.2109 -0.30469,0.30469 -0.70703,0.45703 -1.1055,0.45703 -0.39847,0 -0.80078,-0.15234 -1.1055,-0.45703 l -6.9727,-6.9727 c -0.60938,-0.61328 -0.60938,-1.6016 0,-2.2109 z m -6.0898,6.0898 c 0.60938,-0.60938 1.6016,-0.60938 2.2109,0 l 6.9727,6.9727 c 0.60938,0.60938 0.60938,1.6016 0,2.2109 -0.30469,0.30469 -0.70703,0.45703 -1.1055,0.45703 -0.39844,0 -0.80078,-0.15234 -1.1055,-0.45703 L 25.3941,33.695 c -0.61328,-0.60937 -0.61328,-1.6016 0,-2.2109 z m 1.1055,37.488 c -0.39844,0 -0.80078,-0.15234 -1.1055,-0.45703 -0.60938,-0.60938 -0.60938,-1.6016 0,-2.2109 l 6.9727,-6.9727 c 0.60937,-0.60938 1.6016,-0.60938 2.2109,0 0.6093,0.60938 0.60938,1.6016 0,2.2109 l -6.9727,6.9727 c -0.30859,0.30469 -0.70703,0.45703 -1.1055,0.45703 z m 14.168,-1.3398 -6.9727,6.9727 c -0.30469,0.30469 -0.70703,0.45703 -1.1055,0.45703 -0.39844,0 -0.80078,-0.15234 -1.1055,-0.45703 -0.60938,-0.60938 -0.60938,-1.6016 0,-2.2109 l 6.9727,-6.9727 c 0.60938,-0.60938 1.6016,-0.60938 2.2109,0 0.61328,0.61328 0.61328,1.6016 0,2.2109 z m 10.777,1.4883 c -0.24219,0.58203 -0.8125,0.96484 -1.4453,0.96484 h -0.0039 c -0.63281,0 -1.2031,-0.38281 -1.4453,-0.96875 -3.3984,-8.2812 -9.3438,-14.227 -17.672,-17.672 -0.58203,-0.24219 -0.96484,-0.8125 -0.96484,-1.4453 0,-0.6328 0.38281,-1.2031 0.96484,-1.4453 8.3281,-3.4453 14.273,-9.3906 17.672,-17.672 0.24219,-0.58594 0.8125,-0.96875 1.4453,-0.96875 0.63281,0 1.207,0.38281 1.4453,0.96875 3.3984,8.2812 9.3438,14.227 17.672,17.672 0.58594,0.24219 0.96484,0.8125 0.96484,1.4453 0,0.6328 -0.38281,1.2031 -0.96875,1.4453 -8.2734,3.4023 -14.219,9.3477 -17.664,17.676 z m 17.07,5.4844 c -0.30469,0.30469 -0.70703,0.45703 -1.1055,0.45703 -0.39844,0 -0.80078,-0.15234 -1.1055,-0.45703 L 59.331,67.6323 c -0.60938,-0.60937 -0.60938,-1.6016 0,-2.2109 0.60938,-0.6093 1.6016,-0.60938 2.2109,0 l 6.9727,6.9727 c 0.60938,0.61328 0.60938,1.6016 0,2.2109 z m 6.0898,-6.0898 c -0.30469,0.30469 -0.70703,0.45703 -1.1055,0.45703 -0.39847,0 -0.80078,-0.15234 -1.1055,-0.45703 l -6.9727,-6.9727 c -0.60938,-0.60938 -0.60938,-1.6016 0,-2.2109 0.60938,-0.6093 1.6016,-0.60938 2.2109,0 l 6.9727,6.9727 c 0.61328,0.60937 0.61328,1.6016 0,2.2109 z m 0,-34.82 -6.9727,6.9727 c -0.30469,0.30469 -0.70703,0.45703 -1.1055,0.45703 -0.39844,0 -0.80078,-0.15234 -1.1055,-0.45703 -0.60938,-0.60938 -0.60938,-1.6016 0,-2.2109 l 6.9727,-6.9727 c 0.60938,-0.60938 1.6016,-0.60938 2.2109,0 0.61328,0.60938 0.61328,1.6016 0,2.2109 z"
       id="path13"
       style="fill:#ffffff" />
    <path
       d="M 50,35.199 C 46.6484,41.6678 41.6836,46.625 35.188,50 c 6.5,3.375 11.465,8.3359 14.816,14.809 C 53.379,58.3129 58.3399,53.348 64.809,49.997 58.3129,46.6259 53.352,41.665 50,35.2 Z m 7.375,14.797 c 0,0.47266 -0.21484,0.92188 -0.58203,1.2188 -2.0508,1.6484 -3.9258,3.5273 -5.5703,5.5742 -0.29688,0.37109 -0.74609,0.58594 -1.2188,0.58594 -0.47271,0 -0.92188,-0.21484 -1.2188,-0.58203 -1.6484,-2.0508 -3.5273,-3.9258 -5.5781,-5.5742 -0.37109,-0.29688 -0.58594,-0.74609 -0.58594,-1.2188 0,-0.47271 0.21484,-0.92188 0.58594,-1.2188 2.0547,-1.6484 3.9297,-3.5234 5.5781,-5.5703 0.59375,-0.73828 1.8438,-0.73828 2.4375,0 1.6484,2.0469 3.5234,3.918 5.5742,5.5664 0.36328,0.29688 0.57812,0.74609 0.57812,1.2188 z"
       id="path14"
       style="fill:#ffffff" />
  </g>
  <text
     x="-82.330826"
     y="37.594555"
     font-size="5px"
     font-weight="bold"
     font-family="'Arbeit Regular', Helvetica, Arial-Unicode, Arial, Sans-serif"
     fill="#000000"
     id="text14">Created by wahyu fadil</text>
  <text
     x="-82.330826"
     y="42.594555"
     font-size="5px"
     font-weight="bold"
     font-family="'Arbeit Regular', Helvetica, Arial-Unicode, Arial, Sans-serif"
     fill="#000000"
     id="text15">from Noun Project</text>
</svg>
