<?xml version="1.0" encoding="UTF-8" standalone="no"?>
<svg
   width="512"
   height="512"
   version="1.1"
   viewBox="0 0 512 512"
   id="svg3"
   sodipodi:docname="jeep.svg"
   inkscape:version="1.4.2 (ebf0e940d0, 2025-05-08)"
   inkscape:export-filename="jeep.png"
   inkscape:export-xdpi="96"
   inkscape:export-ydpi="96"
   xmlns:inkscape="http://www.inkscape.org/namespaces/inkscape"
   xmlns:sodipodi="http://sodipodi.sourceforge.net/DTD/sodipodi-0.dtd"
   xmlns="http://www.w3.org/2000/svg"
   xmlns:svg="http://www.w3.org/2000/svg">
  <defs
     id="defs3" />
  <sodipodi:namedview
     id="namedview3"
     pagecolor="#505050"
     bordercolor="#ffffff"
     borderopacity="1"
     inkscape:showpageshadow="0"
     inkscape:pageopacity="0"
     inkscape:pagecheckerboard="1"
     inkscape:deskcolor="#d1d1d1"
     inkscape:document-units="px"
     inkscape:zoom="1.4142136"
     inkscape:cx="260.56884"
     inkscape:cy="261.6295"
     inkscape:window-width="1920"
     inkscape:window-height="1011"
     inkscape:window-x="0"
     inkscape:window-y="0"
     inkscape:window-maximized="1"
     inkscape:current-layer="svg3" />
  <g
     id="g3"
     transform="matrix(0.46487703,0,0,0.46487703,-22.709553,-165.41521)">
    <path
       d="m 362.21,1130.4 c 29.461,0 53.352,-23.832 53.352,-53.27 0,-29.398 -23.891,-53.281 -53.352,-53.281 -29.438,0 -53.305,23.879 -53.305,53.281 0,29.438 23.871,53.27 53.305,53.27 z M 239.3,1077.134 c 0,-67.906 55.031,-122.95 122.91,-122.95 67.906,0 122.96,55.043 122.96,122.95 0,67.895 -55.055,122.91 -122.96,122.91 -67.883,0 -122.91,-55.02 -122.91,-122.91 z"
       fill="#ffffff"
       id="path1"
       style="stroke:#000000;stroke-opacity:1;stroke-width:34.41770397;stroke-dasharray:none;stroke-linecap:butt;stroke-linejoin:round" />
    <path
       d="m 932.03,1130.4 c 29.449,0 53.363,-23.832 53.363,-53.27 0,-29.398 -23.914,-53.281 -53.363,-53.281 -29.426,0 -53.316,23.879 -53.316,53.281 0,29.438 23.895,53.27 53.316,53.27 z m -122.88,-53.266 c 0,-67.906 54.984,-122.95 122.88,-122.95 67.922,0 122.98,55.043 122.98,122.95 0,67.895 -55.055,122.91 -122.98,122.91 -67.895,0 -122.88,-55.02 -122.88,-122.91 z"
       fill="#ffffff"
       id="path2"
       style="stroke:#000000;stroke-opacity:1;stroke-width:34.41770397;stroke-dasharray:none;stroke-linecap:butt;stroke-linejoin:round" />
    <path
       d="m 1105.8,968.54 -0.2773,-98.508 c 0,-45.109 -51.277,-53.93 -51.277,-53.93 l -223.25004,0.004 -82.262,-140.3 c 0,0 -10.859,-22.934 -29.734,-42.742 -18.875,-19.754 -59.785,-20.09 -59.785,-20.09 h -227.4 c -32.508,0 -58.957,26.426 -58.957,58.957 v 12.289 l -211.41,124.77 v -71.699 c 0,-16.391 -12.383,-29.723 -27.66,-29.723 l -57.289,-0.004 c -15.273,0.0117 -27.648,13.332 -27.648,29.727 v 182.55 c 0,16.441 12.371,29.699 27.648,29.699 h 57.289 c 2.1367,0 4.0312,-0.81641 6.0469,-1.3086 l 0.0586,118.27 67.691,0.023 c 4.957,-81.76996 72.289,-146.72996 155.28,-146.72996 83.137,0 150.41,65.016 155.35,146.87996 l 258.23,0.098 c 4.8477,-81.87501 72.191,-146.98001 155.32,-146.98001 83.18404,0 150.59004,65.16 155.36004,147.16001 h 33.816 c 16.129,0 29.219,-13.094 29.219,-29.195 l 0.058,-69.22701 -44.418,-0.004 z m -732.94,-152.59 -132.25,-0.23828 132.25,-78.098 z m 289.53,0.49219 -223.37,-0.40625 v -136.92 h 242.16 l 42.215,73.559 z"
       fill="#ffffff"
       id="path3"
       style="stroke:#000000;stroke-opacity:1;stroke-width:34.41770397;stroke-dasharray:none;stroke-linecap:butt;stroke-linejoin:round" />
  </g>
</svg>
