<?xml version="1.0" encoding="UTF-8" standalone="no"?>
<svg
   version="1.1"
   x="0px"
   y="0px"
   viewBox="0 0 512 512"
   xml:space="preserve"
   id="svg5"
   sodipodi:docname="hut.svg"
   width="512"
   height="512"
   inkscape:version="1.4.2 (f4327f4, 2025-05-13)"
   inkscape:export-filename="hut.png"
   inkscape:export-xdpi="96"
   inkscape:export-ydpi="96"
   xmlns:inkscape="http://www.inkscape.org/namespaces/inkscape"
   xmlns:sodipodi="http://sodipodi.sourceforge.net/DTD/sodipodi-0.dtd"
   xmlns="http://www.w3.org/2000/svg"
   xmlns:svg="http://www.w3.org/2000/svg"><defs
     id="defs5" /><sodipodi:namedview
     id="namedview5"
     pagecolor="#505050"
     bordercolor="#ffffff"
     borderopacity="1"
     inkscape:showpageshadow="0"
     inkscape:pageopacity="0"
     inkscape:pagecheckerboard="1"
     inkscape:deskcolor="#d1d1d1"
     inkscape:zoom="1.767767"
     inkscape:cx="210.15214"
     inkscape:cy="209.58645"
     inkscape:window-width="2560"
     inkscape:window-height="1377"
     inkscape:window-x="-8"
     inkscape:window-y="-8"
     inkscape:window-maximized="1"
     inkscape:current-layer="svg5" /><style
     type="text/css"
     id="style1">
	.st0{display:none;}
	.st1{display:inline;}
</style><g
     id="g4"
     style="fill:#f7cb45;fill-opacity:1;stroke:#000000;stroke-width:1.97896;stroke-linecap:round;stroke-linejoin:round;stroke-dasharray:none;stroke-opacity:1;paint-order:stroke fill markers"
     transform="matrix(17.458934,0,0,17.458934,-23.334071,-23.351665)"><path
       d="m 18.705,26.205 h -5.41 V 22.63 c 0,-0.929 0.751,-1.685 1.675,-1.685 h 2.061 c 0.924,0 1.675,0.756 1.675,1.685 v 3.575 z"
       id="path3"
       style="fill:#42150a;fill-opacity:1;stroke:#000000;stroke-width:1.97896;stroke-linecap:round;stroke-linejoin:round;stroke-dasharray:none;stroke-opacity:1;paint-order:stroke fill markers" /><path
       d="m 26.455,26.205 h -7.1 V 22.63 c 0,-1.287 -1.043,-2.335 -2.325,-2.335 h -2.06 c -1.282,0 -2.325,1.048 -2.325,2.335 v 3.575 h -7.1 V 16.41 c 3.473,0.613 6.985,0.935 10.453,0.935 0.001,0 0.001,0 0.002,0 0,0 0,0 0.001,0 3.468,0 6.981,-0.322 10.454,-0.936 z"
       id="path4"
       style="fill:#42150a;fill-opacity:1;stroke:#000000;stroke-width:1.97896;stroke-linecap:round;stroke-linejoin:round;stroke-dasharray:none;stroke-opacity:1;paint-order:stroke fill markers" /><path
       d="M 2.946,14.311 C 2.758,13.891 2.788,13.455 3.032,13.047 4.021,11.404 5.318,9.79 6.887,8.251 8.835,6.338 11.222,4.522 13.981,2.85 c 0.575,-0.349 1.297,-0.523 2.018,-0.523 0.722,0 1.443,0.174 2.02,0.523 2.757,1.671 5.144,3.488 7.094,5.401 1.568,1.54 2.865,3.153 3.854,4.796 0.244,0.407 0.274,0.844 0.086,1.264 -0.297,0.661 -1.062,1.166 -2.046,1.351 -3.652,0.687 -7.354,1.034 -11.006,1.034 -0.001,0 -0.001,0 -0.001,0 -10e-4,0 -10e-4,0 -0.002,0 -3.651,0 -7.354,-0.348 -11.006,-1.034 -0.984,-0.185 -1.749,-0.69 -2.046,-1.351 z"
       id="path1"
       style="fill:#42150a;fill-opacity:1;stroke:#000000;stroke-width:1.97896;stroke-linecap:round;stroke-linejoin:round;stroke-dasharray:none;stroke-opacity:1;paint-order:stroke fill markers" /><path
       d="m 28.992,28.781 v 0.539 c 0,0.195 -0.159,0.354 -0.354,0.354 H 3.361 c -0.195,0 -0.354,-0.159 -0.354,-0.354 v -0.539 c 0,-1.062 0.864,-1.926 1.926,-1.926 h 22.134 c 1.061,0 1.925,0.865 1.925,1.926 z"
       id="path2"
       style="fill:#777777;fill-opacity:1;stroke:#000000;stroke-width:1.97896;stroke-linecap:round;stroke-linejoin:round;stroke-dasharray:none;stroke-opacity:1;paint-order:stroke fill markers" /></g><text
     x="-51"
     y="9"
     fill="#000000"
     font-size="5px"
     font-weight="bold"
     font-family="'Helvetica Neue', Helvetica, Arial-Unicode, Arial, Sans-serif"
     id="text4">Created by Fabien</text><text
     x="-51"
     y="14"
     fill="#000000"
     font-size="5px"
     font-weight="bold"
     font-family="'Helvetica Neue', Helvetica, Arial-Unicode, Arial, Sans-serif"
     id="text5">from the Noun Project</text></svg>
