<?xml version="1.0" encoding="UTF-8" standalone="no"?>
<svg
   version="1.1"
   x="0px"
   y="0px"
   viewBox="0 0 512 512"
   enable-background="new 0 0 100 100"
   xml:space="preserve"
   id="svg2"
   sodipodi:docname="palm.svg"
   width="512"
   height="512"
   inkscape:version="1.4.2 (f4327f4, 2025-05-13)"
   inkscape:export-filename="palm.png"
   inkscape:export-xdpi="96"
   inkscape:export-ydpi="96"
   xmlns:inkscape="http://www.inkscape.org/namespaces/inkscape"
   xmlns:sodipodi="http://sodipodi.sourceforge.net/DTD/sodipodi-0.dtd"
   xmlns="http://www.w3.org/2000/svg"
   xmlns:svg="http://www.w3.org/2000/svg"><defs
     id="defs2" /><sodipodi:namedview
     id="namedview2"
     pagecolor="#505050"
     bordercolor="#ffffff"
     borderopacity="1"
     inkscape:showpageshadow="0"
     inkscape:pageopacity="0"
     inkscape:pagecheckerboard="1"
     inkscape:deskcolor="#d1d1d1"
     inkscape:zoom="1.6"
     inkscape:cx="111.5625"
     inkscape:cy="181.5625"
     inkscape:window-width="2560"
     inkscape:window-height="1377"
     inkscape:window-x="-8"
     inkscape:window-y="-8"
     inkscape:window-maximized="1"
     inkscape:current-layer="svg2" /><g
     id="g4"
     transform="matrix(0.93251846,0,0,0.93251846,17.283633,17.275279)"
     style="stroke:#000000;stroke-width:37.0508;stroke-dasharray:none;stroke-opacity:1;paint-order:stroke fill markers"><path
       d="m 299.95508,172.62305 -46.55078,2.8789 C 258.43216,262.66717 266.87875,416.88619 136.19531,512 H 241.18359 C 365.61001,409.93264 306.04236,267.98854 299.95508,172.62305 Z"
       style="fill:#42150a;fill-opacity:1;stroke:#000000;stroke-width:37.0508;stroke-linecap:square;stroke-linejoin:miter;stroke-dasharray:none;stroke-opacity:1;paint-order:stroke fill markers"
       id="path4" /><path
       d="m 253.91602,0.01953125 c -3.21439,-0.08578534 -6.46294,0.11281765 -9.72461,0.59570312 -13.05255,2.35296933 -26.66619,8.27663983 -39.69532,24.16210963 2.31785,9.125072 4.41813,16.313088 6.40235,22.382812 -8.92607,-2.142256 -18.06266,-3.61139 -27.4043,-3.669922 -29.27164,-0.105357 -58.28566,10.0794 -80.82031,25.988282 C 79.934307,85.346425 63.065341,106.4289 52.869141,129.5957 c -9.739654,23.28971 -14.370221,48.89815 -6.19336,76.19727 26.6026,-12.26236 46.007261,-23.84585 63.871099,-35.01953 17.57703,-11.22635 32.81786,-21.64519 47.05859,-31.46094 6.18093,-4.22598 12.10987,-8.40484 18.0918,-12.60156 -3.38898,5.81804 -6.41439,11.79959 -8.55079,18.0332 -6.24532,18.41404 -6.87712,38.14461 -1.52734,56.59961 5.57221,18.45501 16.0788,35.93847 36.94531,49.72266 17.44241,-17.43656 27.25091,-31.4785 35.46289,-44.33789 6.83649,-11.19709 11.68361,-21.21181 15.37696,-31.22657 l 46.55078,-2.8789 c 1.70912,2.11299 3.28895,4.44744 5.02148,6.46093 10.48886,12.29163 21.97823,22.7513 34.58008,33.16407 13.02327,10.73469 26.84247,20.10581 45.86523,38.81836 20.05293,-18.1565 23.77524,-45.31482 19.95899,-67.71485 -3.88065,-22.95023 -14.78451,-43.02115 -28.87891,-59.25195 -9.55821,-10.90444 -20.7553,-20.04704 -33.09375,-27.556641 13.12277,3.143146 25.34341,5.051541 36.04883,5.765621 12.795,0.78432 23.19133,-0.0408 34.1543,-1.69726 11.09758,-1.714985 24.78159,-3.759016 49.00781,6.14453 C 476.6316,86.322484 468.01662,57.279385 448.73047,40.814453 429.83062,23.84615 406.04809,16.676578 385.12305,15.587891 363.81756,14.3997 344.05149,18.940973 326.33984,27.726562 318.6605,31.776947 311.32089,36.758264 304.51367,42.699219 301.62806,27.639045 292.24615,15.465263 281.27148,8.5058594 272.88684,3.097542 263.55918,0.27688727 253.91602,0.01953125 Z"
       style="fill:#4eb265;fill-opacity:1;stroke:#000000;stroke-width:37.0508;stroke-linecap:square;stroke-linejoin:miter;stroke-dasharray:none;stroke-opacity:1;paint-order:stroke fill markers"
       id="path3" /></g><text
     x="13.4375"
     y="-14.375"
     fill="#000000"
     font-size="5px"
     font-weight="bold"
     font-family="'Helvetica Neue', Helvetica, Arial-Unicode, Arial, Sans-serif"
     id="text1">Created by Yeep</text><text
     x="13.4375"
     y="-9.375"
     fill="#000000"
     font-size="5px"
     font-weight="bold"
     font-family="'Helvetica Neue', Helvetica, Arial-Unicode, Arial, Sans-serif"
     id="text2">from the Noun Project</text></svg>
