<?xml version="1.0" encoding="UTF-8" standalone="no"?>
<svg
   version="1.1"
   viewBox="-5 -10 512 512"
   id="svg6"
   sodipodi:docname="statue.svg"
   inkscape:version="1.4.2 (f4327f4, 2025-05-13)"
   width="512"
   height="512"
   inkscape:export-filename="statue.png"
   inkscape:export-xdpi="96"
   inkscape:export-ydpi="96"
   xmlns:inkscape="http://www.inkscape.org/namespaces/inkscape"
   xmlns:sodipodi="http://sodipodi.sourceforge.net/DTD/sodipodi-0.dtd"
   xmlns="http://www.w3.org/2000/svg"
   xmlns:svg="http://www.w3.org/2000/svg">
  <defs
     id="defs6" />
  <sodipodi:namedview
     id="namedview6"
     pagecolor="#505050"
     bordercolor="#ffffff"
     borderopacity="1"
     inkscape:showpageshadow="0"
     inkscape:pageopacity="0"
     inkscape:pagecheckerboard="1"
     inkscape:deskcolor="#d1d1d1"
     inkscape:zoom="1.4799999"
     inkscape:cx="101.01352"
     inkscape:cy="142.90541"
     inkscape:window-width="2560"
     inkscape:window-height="1377"
     inkscape:window-x="-8"
     inkscape:window-y="-8"
     inkscape:window-maximized="1"
     inkscape:current-layer="svg6" />
  <g
     id="g1"
     style="fill:#882e72;fill-opacity:1;stroke:#000000;stroke-width:6.33188;stroke-linecap:round;stroke-linejoin:miter;stroke-miterlimit:4;stroke-dasharray:none;stroke-opacity:1;paint-order:stroke fill markers"
     transform="matrix(5.4565964,0,0,5.4565964,-21.82049,-26.831183)">
    <path
       d="M 66.375,30.844 C 63.0586,29.4729 59.582,28.5198 56.031,28.0002 v 8.3125 h 14.172 l -0.5,-3.9531 C 68.621,31.79319 67.5116,31.2893 66.3749,30.844 Z"
       id="path1"
       style="fill:#882e72;fill-opacity:1;stroke:#000000;stroke-width:6.33188;stroke-linecap:round;stroke-linejoin:miter;stroke-miterlimit:4;stroke-dasharray:none;stroke-opacity:1;paint-order:stroke fill markers" />
    <path
       d="m 45.25,24.938 c 8.4648,-1.5195 16.379,0.49609 24,3.7344 l -2.0312,-16.25 C 66.85942,8.9927 64.0235,6.356 60.5782,6.2505 h -9.9688 c -0.53516,1.0391 -1.8984,3.6406 -2.4062,4.6406 l 1.0312,3.2031 c 0.21094,0.62891 -0.0039,1.3203 -0.53125,1.7188 l -5.6406,4.3125 c -0.6875,0.51172 -1.6602,0.38281 -2.1875,-0.29688 -0.25391,-0.32812 -0.36328,-0.74609 -0.30859,-1.1562 0.05469,-0.41016 0.27344,-0.78125 0.60547,-1.0312 l 4.75,-3.6406 -0.90625,-2.7656 c -0.12891,-0.65625 0.03516,-1.3359 0.45312,-1.8594 l 1.625,-3.125 h -7.6406 c -3.4531,0.10547 -6.293,2.7539 -6.6406,6.1875 l -2.0625,16.547 c 4.6406,-1.957 9.5156,-3.3164 14.5,-4.0469 z"
       id="path2"
       style="fill:#882e72;fill-opacity:1;stroke:#000000;stroke-width:6.33188;stroke-linecap:round;stroke-linejoin:miter;stroke-miterlimit:4;stroke-dasharray:none;stroke-opacity:1;paint-order:stroke fill markers" />
    <path
       d="m 32.969,36.312 c 0.02734,0.01563 11,-0.01172 11.031,0 v -8 c -3.5469,0.63672 -7.0273,1.6094 -10.391,2.9062 -1.1172,0.45703 -2.3672,0.96094 -3.3125,1.4062 l -0.46875,3.6875 c 0.03125,0.0039 3.1055,-0.0039 3.1406,0 z"
       id="path3"
       style="fill:#882e72;fill-opacity:1;stroke:#000000;stroke-width:6.33188;stroke-linecap:round;stroke-linejoin:miter;stroke-miterlimit:4;stroke-dasharray:none;stroke-opacity:1;paint-order:stroke fill markers" />
    <path
       d="m 84.664,90.625 h -14.68 c 0.07422,-3.0742 -0.22266,-13.527 -0.3125,-16.781 -0.375,-1.8477 -1.3281,-3.5273 -2.7188,-4.7969 4.1641,-1.5469 6.6875,-5.7891 6.0625,-10.188 l -2.4219,-19.422 h -14.562 v 12.625 c 0,0.41406 -0.16406,0.8125 -0.45703,1.1055 -0.29297,0.293 -0.69141,0.45703 -1.1055,0.45703 h -8.9062 c -0.41406,0 -0.8125,-0.16406 -1.1055,-0.45703 -0.293,-0.29297 -0.45703,-0.69141 -0.45703,-1.1055 v -12.625 c -2.25,0.0039 -12.508,-0.0039 -14.562,0 l -2.4219,19.422 c -0.62891,4.3984 1.8945,8.6406 6.0625,10.188 -1.9336,1.832 -3.0312,4.3828 -3.0312,7.0469 v 14.531 h -14.684 c -0.86328,0 -1.5625,0.69922 -1.5625,1.5625 0,0.86328 0.69922,1.5625 1.5625,1.5625 h 69.301 c 0.85156,-0.01563 1.5312,-0.71094 1.5312,-1.5625 0,-0.85156 -0.67969,-1.5469 -1.5312,-1.5625 z M 39.75,57.563 h 21.891 c 0.85547,0.01172 1.5391,0.70703 1.5391,1.5625 0,0.85547 -0.68359,1.5508 -1.5391,1.5625 H 39.75 c -0.85156,-0.01563 -1.5352,-0.71094 -1.5352,-1.5625 0,-0.85156 0.68359,-1.5469 1.5352,-1.5625 z"
       id="path4"
       style="fill:#882e72;fill-opacity:1;stroke:#000000;stroke-width:6.33188;stroke-linecap:round;stroke-linejoin:miter;stroke-miterlimit:4;stroke-dasharray:none;stroke-opacity:1;paint-order:stroke fill markers" />
    <path
       d="m 47.125,50.5 h 5.7812 V 27.594 C 50.9765,27.43384 49.039,27.49634 47.125,27.7815 Z"
       id="path5"
       style="fill:#882e72;fill-opacity:1;stroke:#000000;stroke-width:6.33188;stroke-linecap:round;stroke-linejoin:miter;stroke-miterlimit:4;stroke-dasharray:none;stroke-opacity:1;paint-order:stroke fill markers" />
  </g>
  <text
     x="-76.275002"
     y="33.462502"
     font-size="5px"
     font-weight="bold"
     font-family="'Arbeit Regular', Helvetica, Arial-Unicode, Arial, Sans-serif"
     fill="#000000"
     id="text5">Created by metami septiana</text>
  <text
     x="-76.275002"
     y="38.462502"
     font-size="5px"
     font-weight="bold"
     font-family="'Arbeit Regular', Helvetica, Arial-Unicode, Arial, Sans-serif"
     fill="#000000"
     id="text6">from Noun Project</text>
</svg>
