<?xml version="1.0" encoding="UTF-8" standalone="no"?>
<svg
   version="1.1"
   viewBox="-5 -10 512 512"
   id="svg2"
   sodipodi:docname="noun-mountains-7981686.svg"
   width="512"
   height="512"
   inkscape:version="1.4.2 (f4327f4, 2025-05-13)"
   inkscape:export-filename="mountain.png"
   inkscape:export-xdpi="96"
   inkscape:export-ydpi="96"
   xmlns:inkscape="http://www.inkscape.org/namespaces/inkscape"
   xmlns:sodipodi="http://sodipodi.sourceforge.net/DTD/sodipodi-0.dtd"
   xmlns="http://www.w3.org/2000/svg"
   xmlns:svg="http://www.w3.org/2000/svg">
  <defs
     id="defs2" />
  <sodipodi:namedview
     id="namedview2"
     pagecolor="#505050"
     bordercolor="#eeeeee"
     borderopacity="1"
     inkscape:showpageshadow="0"
     inkscape:pageopacity="0"
     inkscape:pagecheckerboard="0"
     inkscape:deskcolor="#d1d1d1"
     inkscape:zoom="0.55416667"
     inkscape:cx="-497.14286"
     inkscape:cy="6.3157895"
     inkscape:window-width="2560"
     inkscape:window-height="1377"
     inkscape:window-x="-8"
     inkscape:window-y="-8"
     inkscape:window-maximized="1"
     inkscape:current-layer="svg2" />
  <path
     d="M 4.5842765,418.13722 H 497.41824 c 3.37238,0 6.49824,-1.77233 8.22174,-4.65246 1.72351,-2.88005 1.82156,-6.47361 0.22183,-9.45248 L 394.25311,195.31499 c -4.45547,-8.32006 -13.39103,-13.46474 -23.28652,-13.46474 -9.89551,0 -18.83124,5.16936 -23.28654,13.48938 L 339.2119,211.16746 275.21223,91.486393 c -5.80938,-10.905018 -17.57595,-17.674334 -30.64689,-17.674334 -13.09544,0 -24.83734,6.769316 -30.64685,17.674334 l -34.06804,63.728697 c 0,0.0252 -0.025,0.0252 -0.025,0.0504 l -3.22468,6.03096 c -5.02166,-8.78775 -14.62173,-14.22797 -25.30495,-14.22797 h -0.0504 c -10.90502,0.025 -20.72678,5.71087 -25.6005,14.84357 l -41.157384,76.94957 c 0,0.025 -0.02511,0.0502 -0.02511,0.0739 L -3.8617343,404.08305 c -1.6000453,2.97856 -1.501555,6.54807 0.2218411,9.45249 1.723119,2.88005 4.8493028,4.6524 8.2217553,4.6524 z M 481.44351,398.96129 h -177.6501 l -21.63738,-40.44407 1.03385,-1.92012 34.43732,-64.37144 13.93232,14.42512 c 1.87084,1.9201 4.35703,2.92925 6.89276,2.92925 1.72313,0 3.47083,-0.46756 5.04625,-1.4277 l 44.33343,-27.42231 43.91501,25.28039 49.72388,92.97475 z M 364.59182,204.37231 c 1.67386,-3.12625 5.31703,-3.37247 6.39996,-3.37247 1.08313,0 4.72624,0.24641 6.39998,3.34777 l 37.26865,69.66485 -22.22786,-12.79994 c -3.0524,-1.74765 -6.8184,-1.6984 -9.82176,0.14744 L 339.97628,287.72353 327.12656,274.4063 364.6164,204.32547 Z M 230.82649,100.47054 c 2.5354,-4.726235 7.65525,-7.532364 13.76029,-7.532364 6.0801,0 11.22452,2.806129 13.76032,7.556874 l 33.2066,62.08143 -4.35704,4.67711 -36.82565,-25.6743 c -3.39696,-2.36312 -7.9262,-2.28927 -11.22452,0.19662 l -33.15745,24.86193 -6.27702,-7.87707 31.13904,-58.24119 z m -40.98536,76.65333 6.9419,8.68936 c 1.89541,2.36313 4.67703,3.61861 7.50779,3.61861 1.9939,0 4.01238,-0.61568 5.73552,-1.92011 l 35.053,-26.2899 37.9574,26.46193 c 3.9139,2.73232 9.23068,2.1662 12.48044,-1.32927 l 5.56316,-5.95702 27.27423,51.00436 -57.08423,106.73752 -52.21052,-97.62531 -31.55742,-59.05351 2.33846,-4.35701 z m -47.28704,-6.2278 c 2.31391,-4.35703 7.2614,-4.70161 8.73851,-4.70161 h 0.0251 c 1.50156,0 6.44914,0.3447 8.78768,4.72624 l 39.75463,74.31548 -7.21224,7.77878 -36.40652,-25.62509 c -3.39698,-2.38775 -7.9754,-2.31383 -11.29887,0.19664 l -32.76361,24.78819 -7.87707,-9.94458 z m -48.123889,89.96885 8.517309,10.75689 c 1.89541,2.38776 4.70163,3.64318 7.53238,3.64318 2.01851,0 4.03699,-0.64 5.78475,-1.94458 l 34.65912,-26.21623 37.53898,26.41279 c 3.9139,2.75697 9.28047,2.19083 12.55417,-1.32929 l 8.39382,-9.08321 2.38776,4.45547 51.02896,95.45756 18.26472,34.0933 0.96,1.79691 -261.46848,0.0739 73.849162,-138.0945 z"
     id="path1"
     style="stroke-width:6.30166" />
  <text
     x="-113.23309"
     y="76.251198"
     font-size="5px"
     font-weight="bold"
     font-family="'Arbeit Regular', Helvetica, Arial-Unicode, Arial, Sans-serif"
     fill="#000000"
     id="text1">Created by Puspa Kusuma</text>
  <text
     x="-113.23309"
     y="81.251198"
     font-size="5px"
     font-weight="bold"
     font-family="'Arbeit Regular', Helvetica, Arial-Unicode, Arial, Sans-serif"
     fill="#000000"
     id="text2">from Noun Project</text>
</svg>
