<?xml version="1.0" encoding="UTF-8" standalone="no"?>
<svg
   version="1.1"
   viewBox="-5 -10 512 512"
   id="svg2"
   sodipodi:docname="noun-river-7622096.svg"
   width="512"
   height="512"
   inkscape:version="1.4.2 (f4327f4, 2025-05-13)"
   inkscape:export-filename="river.png"
   inkscape:export-xdpi="96"
   inkscape:export-ydpi="96"
   xmlns:inkscape="http://www.inkscape.org/namespaces/inkscape"
   xmlns:sodipodi="http://sodipodi.sourceforge.net/DTD/sodipodi-0.dtd"
   xmlns="http://www.w3.org/2000/svg"
   xmlns:svg="http://www.w3.org/2000/svg">
  <defs
     id="defs2" />
  <sodipodi:namedview
     id="namedview2"
     pagecolor="#505050"
     bordercolor="#eeeeee"
     borderopacity="1"
     inkscape:showpageshadow="0"
     inkscape:pageopacity="0"
     inkscape:pagecheckerboard="0"
     inkscape:deskcolor="#d1d1d1"
     inkscape:zoom="0.39185501"
     inkscape:cx="338.13527"
     inkscape:cy="44.659376"
     inkscape:window-width="2560"
     inkscape:window-height="1377"
     inkscape:window-x="-8"
     inkscape:window-y="-8"
     inkscape:window-maximized="1"
     inkscape:current-layer="svg2" />
  <path
     d="m 80.213814,-6.272932 c -1.493322,3.1999621 -0.106499,7.01881954 3.11461,8.4906212 0,0 33.045016,15.3811008 71.722796,37.5461988 38.67668,22.186381 82.96208,51.49808 104.33746,77.440742 20.18102,24.46918 27.8186,57.87848 35.83956,92.0933 0.40522,1.77065 0.87468,3.5413 1.3013,5.31195 -4.54393,0.36263 -9.34368,0.89597 -14.42102,1.62134 -5.97352,0.85332 -7.55182,8.72546 -2.3893,11.81872 19.28482,11.56259 27.13594,30.91185 31.21004,47.2525 3.00796,11.98912 11.41296,20.09582 20.73588,24.4479 1.42932,1.74929 2.87994,3.51995 4.43728,5.20524 21.78116,23.4878 62.10004,43.221 97.31974,57.8348 35.22078,14.63454 65.32218,23.74394 65.32218,23.74394 3.37064,1.02398 6.95438,-0.89598 7.97836,-4.26663 1.02399,-3.39193 -0.87468,-6.95436 -4.26661,-7.97836 0,0 -29.56784,-8.95974 -64.12618,-23.31686 -30.20734,-12.54398 -64.06062,-29.56784 -84.62774,-47.1247 3.92527,-0.36264 7.63702,-1.40797 10.94382,-3.24263 7.91446,4.39462 18.19694,4.26661 27.92508,0.78931 10.5812,-3.77597 20.77848,-12.39434 24.5331,-25.941 11.4561,-41.36471 13.82356,-41.44991 21.1411,-58.96528 1.77066,-4.22396 -1.34397,-8.87455 -5.90908,-8.87455 -9.72762,0 -28.47942,6.93307 -40.12774,12.33044 -1.19465,-7.72277 -2.85864,-15.67984 -4.90662,-23.10388 -2.19728,-7.93576 -4.7786,-15.14627 -7.99966,-20.88496 -1.59999,-2.85865 -3.37065,-5.39726 -5.63166,-7.46664 -2.28265,-2.06933 -5.37596,-3.81864 -9.02364,-3.81864 -3.328,0 -6.08004,2.53862 -6.37876,5.8452 -2.15463,24.95962 -7.44534,35.71176 -12.43694,44.05274 -0.89598,1.51463 -1.83466,2.98666 -2.75199,4.50129 -10.26116,-3.77598 -21.88766,-5.11994 -33.49284,-5.05593 -0.64001,-2.53862 -1.30132,-5.05593 -1.89866,-7.65834 -8.02152,-34.1116 -15.67984,-69.69666 -38.4211,-97.29788 C 245.45874,80.171838 200.59664,51.140298 161.42844,28.672658 122.2395,6.2088387 88.744482,-9.3858013 88.744482,-9.3858013 c -3.199979,-1.4933377 -7.01882,-0.085199 -8.490638,3.0933107 z M 65.494073,31.29455 c -3.26398,1.343968 -4.821268,5.077289 -3.4773,8.340998 4.031941,9.813341 9.32238,16.170259 15.61594,19.455759 6.293019,3.30663 12.864018,3.242612 18.431778,2.517302 5.567759,-0.74666 10.495999,-2.090612 14.229319,-2.410651 3.73327,-0.320021 5.54646,-0.02181 7.48794,1.728008 1.57862,1.429321 4.75725,7.295701 6.65618,12.458223 1.89866,5.18394 3.00796,9.642418 3.00796,9.642418 0.85333,3.434649 4.33063,5.52516 7.74408,4.67195 3.43463,-0.853329 5.52516,-4.309278 4.67195,-7.744079 0,0 -1.25867,-5.055922 -3.43465,-10.965121 -2.17598,-5.909098 -4.7786,-12.693079 -10.04764,-17.514279 -5.14129,-4.6933 -11.77558,-5.503861 -17.23684,-5.034639 -5.46126,0.490421 -10.410258,1.898678 -14.783638,2.474618 -4.373279,0.575992 -7.765379,0.426521 -10.794739,-1.151999 -3.02931,-1.59999 -6.421359,-4.949271 -9.727601,-12.991801 -1.42932,-3.477299 -5.311959,-4.735967 -8.362298,-3.477299 z m -69.6529776,10.5812 c -1.7492911,3.07196 -0.6826597,6.975678 2.3893005,8.725477 0,0 27.5837591,15.765021 58.6867581,38.186242 20.97016,15.103681 43.284896,33.407661 59.735316,51.327161 3.64795,19.37056 1.72799,29.56783 -1.13065,38.46368 -0.95998,2.94396 -2.09063,5.8665 -3.17861,8.91716 -0.83198,-0.46912 -1.66401,-0.95998 -2.47462,-1.40797 -6.82658,-3.77597 -13.674457,-6.84788 -19.647996,-9.02365 -5.973521,-2.17599 -10.602483,-3.58396 -15.124961,-3.58396 -4.415929,0 -7.50924,4.35198 -6.037439,8.53323 6.143938,17.47168 8.1706,17.68521 17.834318,59.06904 5.823882,24.95962 30.335678,34.58072 45.247658,25.72747 4.35198,2.58132 9.51462,3.58396 14.80494,3.09332 -0.17038,2.3893 -0.32002,4.75725 -0.51172,7.1679 -3.19996,40.53296 -6.61304,82.38864 13.48278,118.05616 7.2744,12.9066 19.11442,25.45058 32.7037,37.24746 -4.84262,3.3493 -9.2585,7.21052 -13.22664,11.5413 -6.22912,-2.43195 -13.0131,-3.79727 -20.09582,-3.79727 -30.54922,0 -55.4646,24.91702 -55.4646,55.4646 0,3.5413 2.85864,6.40006 6.40004,6.40006 h 196.26694 c 3.5413,0 6.40006,-2.85864 6.40006,-6.40006 0,-42.3461 -34.45294,-76.7963 -76.7963,-76.7963 -11.17866,0 -21.82376,2.43195 -31.40228,6.74138 -14.52806,-12.22394 -26.9863,-24.89572 -33.62064,-36.69314 -17.64262,-31.33838 -15.06108,-70.29194 -11.86132,-110.78176 0.32004,-4.15996 0.59736,-8.34099 0.89598,-12.52268 7.89316,-4.67195 14.59194,-12.9279 17.27998,-24.49049 9.66372,-41.38601 11.69038,-41.59955 17.83432,-59.06904 1.47197,-4.15996 -1.62134,-8.53322 -6.03744,-8.53322 -4.50128,0 -9.15198,1.40797 -15.12498,3.58395 -4.56528,1.66399 -9.6637,3.86127 -14.84808,6.50655 -0.0436,-4.69331 -0.38392,-9.51461 -1.3013,-14.35712 -2.68799,-14.29322 -11.4561,-28.56515 -30.95446,-37.14097 C 109.40645,112.5745 86.110352,93.971798 64.459155,78.356399 32.758154,55.508658 4.6419335,39.423598 4.6419335,39.423598 1.5699733,37.67429 -2.3337454,38.740938 -4.0835268,41.812898 Z M 129.92061,148.28305 c 9.83464,6.40004 13.65316,14.20802 15.3598,23.31686 1.13065,6.03742 1.1093,12.65048 0.83198,19.39186 -5.05594,3.19997 -9.87724,6.76268 -14.0158,10.75214 -2.64527,-2.55997 -5.58906,-4.90662 -8.68232,-7.12532 1.25867,-3.69061 2.79464,-7.48794 4.26661,-12.0743 2.62399,-8.1706 3.58397,-19.6906 2.21865,-34.2394 z m 238.80472,35.51951 c 2.15463,4.18125 4.37328,9.79205 6.22912,16.46899 2.2613,8.1493 4.01064,17.32258 5.16259,25.79191 -4.97062,2.75199 -9.685,5.76 -13.8454,9.08809 -3.22126,-3.79727 -7.04012,-7.33884 -11.69038,-10.36766 0.70401,-1.13065 1.42932,-2.304 2.24,-3.62661 4.45863,-7.46664 8.93844,-19.75449 11.92522,-37.35395 z m -283.494256,5.14129 c 6.442659,2.26129 12.287858,4.97063 18.431776,8.36229 7.59444,4.18125 14.91198,9.47202 20.15972,14.67714 -0.89598,1.53599 -1.70666,3.09332 -2.36795,4.73596 -4.54395,11.22126 -5.6961,20.86367 -3.96794,29.05556 0.85331,4.01065 2.41065,7.59444 4.41591,10.75214 -7.2105,0.55465 -19.13572,-3.58395 -22.591598,-18.36787 -7.125319,-30.52738 -10.538601,-39.9355 -14.100998,-49.21528 z m 79.658016,49.21528 c -4.43728,19.02922 -22.99684,20.43714 -27.32762,16.87421 -3.83994,-3.15732 -6.46396,-6.80528 -7.53054,-11.90392 -1.088,-5.09858 -0.57601,-12.03171 3.30663,-21.61022 3.05061,-7.53054 14.78364,-17.34388 27.24242,-24.21306 6.86918,-3.79727 12.65048,-6.33616 18.43178,-8.36229 0,2.60262 -2.94396,1.42932 -14.101,49.21528 z m 256.63576,-15.38111 c -4.22396,9.27978 -8.2984,18.7305 -16.76772,49.27917 -2.55997,9.23718 -9.1307,14.65586 -16.5116,17.30129 -7.38144,2.64533 -15.3385,1.59998 -18.34656,-0.49042 -4.7146,-3.26398 -7.76538,-6.95437 -8.98106,-11.81873 -1.216,-4.86396 -0.70401,-11.51998 3.88264,-21.0133 3.49858,-7.25311 17.6852,-17.42908 32.61848,-24.38345 11.96782,-5.56776 17.87692,-7.23181 24.10658,-8.87456 z m -101.69422,4.43728 c 9.57852,0.78931 16.95996,2.79464 22.6981,5.48256 6.42136,3.00796 11.02904,6.93308 14.67716,11.47739 -1.53599,2.00533 -2.87994,4.09595 -3.94664,6.29302 -5.43991,11.30646 -6.86918,21.2263 -4.75725,29.67432 1.00263,3.96794 2.75199,7.46664 4.99192,10.51731 -3.83992,0.51172 -8.74676,0.29873 -13.41832,-1.28001 -7.78668,-2.64533 -14.48492,-8.0641 -16.76772,-17.17295 -3.43465,-13.69576 -9.85596,-30.59182 -23.23168,-44.07404 6.57044,-0.29873 13.1409,-0.95998 19.73318,-0.91733 z m 2.51732,151.12411 c -3.51995,0.42652 -6.01614,3.60532 -5.58906,7.12532 0.42652,3.51995 3.6053,6.01612 7.12532,5.58906 14.95458,-1.68529 24.91702,1.1733 26.55976,2.5386 4.84262,4.03194 -1.25865,21.1624 9.55722,30.18606 10.81587,9.02364 26.55976,-0.0639 31.40226,3.98929 4.50128,3.75462 7.89318,25.66358 7.25312,25.66358 0.21352,3.51995 3.26398,6.20782 6.78398,5.99482 3.5413,-0.21354 6.20782,-3.24263 5.99482,-6.78398 -0.70401,-10.4321 -3.17861,-27.49856 -11.84002,-34.70906 -10.81604,-9.02366 -26.55976,0.0639 -31.40226,-3.96794 -4.86392,-4.05331 1.25865,-21.1837 -9.55722,-30.18606 -8.78936,-7.33884 -26.45328,-6.54914 -36.26608,-5.41861 z m -86.29344,53.28994 c 33.2367,0 60.1176,25.23704 63.36158,57.59996 h -85.07558 c -1.85596,-16.06378 -10.6238,-30.05826 -23.23168,-38.95412 11.4774,-11.51998 27.30634,-18.6453 44.94894,-18.6453 z m -76.79632,21.33278 c 21.37594,0 38.18626,15.82894 41.38602,36.26608 h -82.77094 c 3.17863,-20.43714 20.01062,-36.26608 41.38602,-36.26608 z"
     fill-rule="evenodd"
     id="path1"
     style="stroke-width:5.46126" />
  <text
     x="-74.887215"
     y="82.763161"
     font-size="5px"
     font-weight="bold"
     font-family="'Arbeit Regular', Helvetica, Arial-Unicode, Arial, Sans-serif"
     fill="#000000"
     id="text1">Created by Gulalicon</text>
  <text
     x="-74.887215"
     y="87.763161"
     font-size="5px"
     font-weight="bold"
     font-family="'Arbeit Regular', Helvetica, Arial-Unicode, Arial, Sans-serif"
     fill="#000000"
     id="text2">from Noun Project</text>
</svg>
