<?xml version="1.0" encoding="UTF-8" standalone="no"?>
<svg
   version="1.1"
   viewBox="-5 -10 512 512"
   id="svg4"
   sodipodi:docname="noun-sea-7455981.svg"
   width="512"
   height="512"
   inkscape:version="1.4.2 (f4327f4, 2025-05-13)"
   inkscape:export-filename="ocean.png"
   inkscape:export-xdpi="96"
   inkscape:export-ydpi="96"
   xmlns:inkscape="http://www.inkscape.org/namespaces/inkscape"
   xmlns:sodipodi="http://sodipodi.sourceforge.net/DTD/sodipodi-0.dtd"
   xmlns="http://www.w3.org/2000/svg"
   xmlns:svg="http://www.w3.org/2000/svg">
  <defs
     id="defs4" />
  <sodipodi:namedview
     id="namedview4"
     pagecolor="#505050"
     bordercolor="#eeeeee"
     borderopacity="1"
     inkscape:showpageshadow="0"
     inkscape:pageopacity="0"
     inkscape:pagecheckerboard="0"
     inkscape:deskcolor="#d1d1d1"
     inkscape:zoom="0.55416667"
     inkscape:cx="-161.50376"
     inkscape:cy="291.42857"
     inkscape:window-width="2560"
     inkscape:window-height="1377"
     inkscape:window-x="-8"
     inkscape:window-y="-8"
     inkscape:window-maximized="1"
     inkscape:current-layer="svg4" />
  <g
     id="g4"
     transform="matrix(5.6030108,0,0,5.6030108,-29.057561,-34.063562)">
    <path
       d="M 6.5156,57.652 C 5.4492,57.80044 4.4609,57.05434 4.3125,55.9879 4.16406,54.9215 4.91016,53.9332 5.9766,53.7848 c 0,0 6.543,-0.83984 8.6562,-2.0625 4.1289,-2.3828 6.207,-6.2109 8.0352,-10.332 2.0586,-4.6367 3.7891,-9.6406 7.0195,-13.848 8.1797,-10.652 19.926,-15.996 36.777,-13.887 11.875,1.4844 16.582,11.402 16.707,17.93 0.01563,0.69922 -0.34766,1.3477 -0.94531,1.7109 -0.59766,0.35938 -1.3438,0.375 -1.9531,0.03906 -3.25,-1.793 -6.0469,-2.2461 -8.418,-1.875 -5.4727,0.86328 -8.543,5.9492 -9.2227,7.5117 -0.72656,1.668 -1.2266,4.9492 -0.6875,7.9414 0.46875,2.6133 1.7656,5.0703 4.8555,5.5312 2.3516,0.35156 5.2578,-0.23047 8.5352,-0.95312 5.4883,-1.207 11.902,-2.8633 18.512,-2.4062 1.0742,0.07422 1.8867,1.0078 1.8125,2.082 -0.07422,1.0742 -1.0078,1.8867 -2.082,1.8125 -6.2148,-0.42969 -12.242,1.1875 -17.402,2.3242 -3.8203,0.83984 -7.2148,1.4141 -9.9531,1.0039 -4.9961,-0.74609 -7.3633,-4.4766 -8.1211,-8.7031 -0.69141,-3.8438 0.01953,-8.0508 0.95313,-10.191 0.89453,-2.0547 4.9922,-8.6719 12.195,-9.8086 2.207,-0.34766 4.7148,-0.19922 7.5156,0.77734 -1.3047,-4.6914 -5.2383,-9.9023 -12.785,-10.848 -15.188,-1.9023 -25.824,2.793 -33.195,12.391 -3.0391,3.9609 -4.6133,8.6914 -6.5469,13.055 -2.1641,4.8789 -4.7617,9.3047 -9.6523,12.129 -2.4688,1.4258 -10.07,2.5469 -10.07,2.5469 z"
       fill-rule="evenodd"
       id="path1" />
    <path
       d="M 6.8594,71.238 C 5.836,71.57394 4.7305,71.01534 4.3946,69.9919 4.05866,68.9685 4.61726,67.863 5.6407,67.5271 c 0,0 21.512,-7.0039 30.738,-6.4531 4.707,0.28125 7.957,1.3672 11.539,2.5469 3.3203,1.0938 6.957,2.2695 12.57,2.8359 6.707,0.67188 14.383,-2.1094 21,-4.2969 4.8594,-1.6055 9.207,-2.8867 12.348,-2.6953 1.0742,0.06641 1.8945,0.99219 1.832,2.0664 -0.06641,1.0742 -0.99219,1.8945 -2.0664,1.832 -3.5234,-0.21094 -8.707,1.8125 -14.41,3.668 -6.2422,2.0312 -13.039,3.918 -19.094,3.3086 -5.9883,-0.60156 -9.8633,-1.8438 -13.406,-3.0117 -3.2773,-1.082 -6.2461,-2.1016 -10.551,-2.3594 -8.7969,-0.52344 -29.289,6.2656 -29.289,6.2656 z"
       fill-rule="evenodd"
       id="path2" />
    <path
       d="m 7.4766,82.445 c -0.83594,0.67969 -2.0664,0.55078 -2.7461,-0.28516 -0.67969,-0.83594 -0.55078,-2.0664 0.28516,-2.7461 0,0 8.543,-7.0391 20.711,-2.0898 10.695,4.3516 14.984,5.9844 28.023,5.4297 4.7852,-0.20312 9.3945,-2.5703 13.516,-4.4297 3.1523,-1.4219 6.0625,-2.5625 8.5742,-2.6523 4.4648,-0.16016 6.875,0.43359 9.3594,1.2227 2.2227,0.70703 4.5117,1.5938 8.7734,2.1523 1.0703,0.14062 1.8242,1.1211 1.6836,2.1875 -0.14062,1.0703 -1.1211,1.8242 -2.1875,1.6836 -4.5859,-0.59766 -7.0547,-1.5391 -9.4492,-2.3008 -2.1328,-0.67578 -4.2031,-1.1836 -8.0352,-1.043 -2.6758,0.09766 -5.832,1.7344 -9.3164,3.3125 -3.9727,1.8008 -8.3086,3.5781 -12.75,3.7695 -13.797,0.58594 -18.34,-1.1094 -29.66,-5.7148 -9.8477,-4.0078 -16.777,1.5039 -16.777,1.5039 z"
       fill-rule="evenodd"
       id="path3" />
  </g>
  <text
     x="-105.58752"
     y="53.371395"
     font-size="5px"
     font-weight="bold"
     font-family="'Arbeit Regular', Helvetica, Arial-Unicode, Arial, Sans-serif"
     fill="#000000"
     id="text3">by Muhammad Nur Auliady Pamungkas</text>
  <text
     x="-105.58752"
     y="58.371395"
     font-size="5px"
     font-weight="bold"
     font-family="'Arbeit Regular', Helvetica, Arial-Unicode, Arial, Sans-serif"
     fill="#000000"
     id="text4">from Noun Project</text>
</svg>
