<?xml version="1.0" encoding="UTF-8" standalone="no"?>
<svg
   version="1.1"
   x="0px"
   y="0px"
   viewBox="0 0 512 512"
   xml:space="preserve"
   id="svg14"
   sodipodi:docname="noun-jungle-4932026.svg"
   width="512"
   height="512"
   inkscape:version="1.4.2 (f4327f4, 2025-05-13)"
   inkscape:export-filename="jungle.png"
   inkscape:export-xdpi="96"
   inkscape:export-ydpi="96"
   xmlns:inkscape="http://www.inkscape.org/namespaces/inkscape"
   xmlns:sodipodi="http://sodipodi.sourceforge.net/DTD/sodipodi-0.dtd"
   xmlns="http://www.w3.org/2000/svg"
   xmlns:svg="http://www.w3.org/2000/svg"><defs
     id="defs14" /><sodipodi:namedview
     id="namedview14"
     pagecolor="#505050"
     bordercolor="#eeeeee"
     borderopacity="1"
     inkscape:showpageshadow="0"
     inkscape:pageopacity="0"
     inkscape:pagecheckerboard="0"
     inkscape:deskcolor="#d1d1d1"
     inkscape:zoom="0.48266129"
     inkscape:cx="-40.401002"
     inkscape:cy="402.9741"
     inkscape:window-width="2560"
     inkscape:window-height="1377"
     inkscape:window-x="-8"
     inkscape:window-y="-8"
     inkscape:window-maximized="1"
     inkscape:current-layer="svg14" /><g
     id="g13"
     transform="scale(1.032258)"><rect
       x="48"
       y="480"
       width="160"
       height="16"
       id="rect1" /><rect
       x="160"
       y="448"
       width="64"
       height="16"
       id="rect2" /><rect
       x="128"
       y="432"
       width="16"
       height="16"
       id="rect3" /><rect
       x="32"
       y="432"
       width="80"
       height="16"
       id="rect4" /><path
       d="m 96,124.687 c -2.137,2.137 -4.978,3.313 -8,3.313 -3.022,0 -5.863,-1.177 -8,-3.313 l -2.343,-2.343 -11.313,11.313 2.343,2.343 c 5.159,5.159 12.018,8 19.313,8 7.295,0 14.155,-2.841 19.313,-8 l 2.343,-2.343 -11.313,-11.313 z"
       id="path4" /><path
       d="m 356.687,120 c 5.159,5.159 12.018,8 19.313,8 7.295,0 14.155,-2.841 19.313,-8 l 2.343,-2.343 -11.313,-11.313 -2.343,2.343 c -2.137,2.137 -4.978,3.313 -8,3.313 -3.022,0 -5.863,-1.177 -8,-3.313 l -2.343,-2.343 -11.313,11.313 z"
       id="path5" /><path
       d="m 402.262,200.456 c 7.402,4.935 16.018,7.544 24.915,7.544 20.648,0 38.567,-13.99 43.575,-34.022 l 0.259,-1.037 0.806,-0.538 C 486.959,162.309 496,145.353 496,127.048 v -0.77 c 0,-26.106 -18.69,-48.17 -44.442,-52.462 L 445.59,72.821 C 433.752,47.884 408.855,32.01 380.944,32 l -0.937,-1.873 C 370.716,11.544 352.038,0 331.261,0 316.703,0 303.017,5.669 292.723,15.963 l -6.303,6.303 -3.05,-1.525 C 277.167,17.64 270.223,16 263.288,16 251.346,16 240.114,20.631 231.645,29.042 220.731,20.583 207.404,16 193.373,16 h -6.059 l -0.365,-0.365 C 176.866,5.553 163.461,0 149.203,0 126.124,0 105.815,14.948 98.603,36.381 92.396,33.512 85.55,32 78.714,32 57.812,32 39.564,45.602 33.479,65.384 l -3.582,0.895 C 12.294,70.68 0,86.426 0,104.571 c 0,6.095 1.441,12.199 4.167,17.651 L 7.056,128 4.742,132.629 C 1.64,138.833 0,145.777 0,152.712 c 0,11.995 4.671,23.272 13.153,31.754 l 3.854,3.854 1.686,5.058 C 23.204,206.909 35.816,216 50.079,216 54.867,216 59.655,214.927 64,212.912 V 345.87 L 20.152,319.561 38.027,400 H 0 v 16 h 246.187 c -3.905,5.78 -6.187,12.743 -6.187,20.229 0,15.178 9.583,28.859 23.848,34.047 L 290.59,480 H 240 v 16 h 256 v -16 h -50.59 l 26.743,-9.725 C 486.417,465.088 496,451.406 496,436.229 496,416.252 479.748,400 459.772,400 c -8.155,0 -16.32,1.76 -23.76,5.104 l 13.289,-23.257 C 453.684,374.178 456,365.454 456,356.621 456,336.429 439.571,320 419.378,320 c -7.045,0 -13.701,1.998 -19.378,5.533 V 198.948 Z M 57.718,198.197 c -2.359,1.18 -5.001,1.803 -7.64,1.803 -7.364,0 -13.877,-4.694 -16.206,-11.681 l -2.88,-8.641 -6.525,-6.525 C 19.007,167.693 16,160.434 16,152.712 c 0,-4.464 1.055,-8.935 3.052,-12.928 L 24.944,128 18.478,115.067 C 16.857,111.825 16,108.195 16,104.571 16,93.782 23.311,84.419 33.777,81.802 l 12.819,-3.205 1.715,-6.86 C 51.806,57.761 64.308,48 78.714,48 c 4.839,0 9.686,1.144 14.014,3.308 l 17.062,8.531 2.759,-13.79 C 116.031,28.638 131.446,16 149.203,16 c 9.984,0 19.372,3.888 26.432,10.948 L 180.686,32 h 12.687 c 12.455,0 24.164,4.85 32.971,13.657 L 232,51.314 242.847,40.467 c 5.46,-5.46 12.719,-8.467 20.441,-8.467 4.464,0 8.935,1.055 12.928,3.052 l 13.364,6.682 14.458,-14.458 C 311.309,20.005 320.978,16 331.261,16 c 14.677,0 27.872,8.155 34.436,21.282 L 371.056,48 h 9.863 c 22.88,0 43.155,13.727 51.653,34.971 l 1.672,4.18 14.684,2.447 C 466.932,92.599 480,108.025 480,126.278 v 0.77 c 0,12.943 -6.377,24.922 -17.058,32.043 l -5.953,3.968 -1.759,7.038 C 452.005,182.993 440.47,192 427.177,192 c -5.728,0 -11.274,-1.679 -16.04,-4.856 L 400,179.718 v -13.091 c 0,-12.455 4.85,-24.164 13.657,-32.971 L 402.344,122.343 C 390.514,134.172 384,149.899 384,166.627 V 346.46 l -16,39.999 V 224 216 166.627 c 0,-16.729 -6.514,-32.456 -18.343,-44.284 l -11.313,11.313 C 347.15,142.464 352,154.173 352,166.627 v 22.951 l -5.419,8.128 C 342.284,204.152 335.094,208 327.346,208 c -3.57,0 -7.145,-0.844 -10.339,-2.44 L 304,199.056 l -13.007,6.503 c -3.194,1.597 -6.77,2.441 -10.339,2.441 -7.748,0 -14.938,-3.848 -19.235,-10.294 L 256,189.578 v -30.951 c 0,-12.455 4.85,-24.164 13.657,-32.971 L 258.344,114.343 C 246.514,126.172 240,141.899 240,158.627 V 216 v 8 139.155 c 0,12.58 2.334,25.111 6.807,36.845 H 219.885 C 222.591,391.652 224,382.879 224,374.111 V 251.313 c 0,-4.273 -1.665,-8.292 -4.687,-11.313 l -51.75,-51.75 c 3.681,-1.896 6.994,-4.465 9.77,-7.603 L 224,227.313 v -52.686 c 0,-16.729 -6.514,-32.456 -18.343,-44.284 l -11.313,11.313 C 203.15,150.464 208,162.173 208,174.627 v 14.059 L 173.81,154.495 168,166.111 c -3.05,6.1 -9.181,9.889 -16,9.889 h -19.313 l 25.952,25.952 c -6,3.953 -12.961,6.048 -20.151,6.048 -9.785,0 -18.983,-3.811 -25.902,-10.729 L 112,196.687 v -6.059 c 0,-12.455 4.85,-24.164 13.657,-32.971 L 114.344,146.344 C 102.514,158.172 96,173.899 96,190.627 v 178.746 c 0,10.905 2.785,21.375 7.989,30.627 H 72.011 C 77.215,390.749 80,380.278 80,369.373 V 190.627 C 80,173.898 73.486,158.171 61.657,146.343 L 50.344,157.656 C 59.15,166.464 64,178.173 64,190.627 v 4.428 z m 228.981,183.651 13.289,23.257 c -7.44,-3.345 -15.605,-5.104 -23.76,-5.104 H 264.169 C 258.818,388.497 256,375.857 256,363.156 v -96.891 c 5.288,5.998 11.677,10.996 18.852,14.683 l -2.697,13.483 15.689,3.139 2.223,-11.115 c 4.489,1 9.147,1.545 13.933,1.545 4.786,0 9.444,-0.545 13.932,-1.546 l 2.223,11.115 15.689,-3.139 -2.697,-13.483 c 7.174,-3.687 13.564,-8.685 18.852,-14.683 v 80.196 l -1.375,-3.439 C 345.031,329.036 331.684,320 316.622,320 296.429,320 280,336.429 280,356.622 c 0,8.833 2.316,17.557 6.699,25.226 z M 256,216 v -0.747 c 6.877,5.59 15.535,8.747 24.654,8.747 6.041,0 12.09,-1.428 17.494,-4.13 l 5.852,-2.926 5.853,2.926 c 5.403,2.701 11.453,4.129 17.494,4.129 9.119,0 17.777,-3.158 24.654,-8.747 v 0.748 8 c 0,16.957 -8.846,31.877 -22.158,40.418 l -1.997,-9.987 -15.689,3.139 2.638,13.192 c -3.473,0.8 -7.083,1.238 -10.795,1.238 -3.712,0 -7.322,-0.438 -10.794,-1.239 l 2.638,-13.192 -15.689,-3.139 -1.997,9.987 C 264.846,255.877 256,240.957 256,224 Z M 112,369.373 V 216.862 c 4.958,2.898 10.349,4.959 16,6.096 V 256 c 0,17.645 14.355,32 32,32 17.645,0 32,-14.355 32,-32 v -20.687 l 16,16 v 76.041 l -43.328,-34.662 9.531,57.189 -45.87,-9.174 L 162.215,400 H 123.484 C 116.063,391.508 112,380.756 112,369.373 Z M 170.181,213.494 176,219.313 V 256 c 0,8.822 -7.178,16 -16,16 -8.822,0 -16,-7.178 -16,-16 v -32.292 c 8.45,-0.884 16.547,-3.791 23.681,-8.548 z m -10.514,149.798 34.13,6.826 -6.469,-38.811 20.672,16.538 v 26.266 c 0,8.849 -1.775,17.705 -5.15,25.889 H 180.642 Z M 64,364.53 v 4.843 c 0,10.59 -3.519,20.635 -9.984,28.822 L 43.848,352.439 Z M 419.378,336 c 11.371,0 20.622,9.251 20.622,20.622 0,6.054 -1.587,12.031 -4.591,17.288 l -39.464,69.062 45.104,-22.552 c 5.783,-2.892 12.258,-4.42 18.723,-4.42 11.154,0 20.228,9.074 20.228,20.229 0,8.475 -5.351,16.114 -13.315,19.01 L 398.59,480 h -12.702 l 65.689,-32.845 -7.155,-14.311 -69.2,34.6 47.933,-95.867 -14.311,-7.156 -40.844,81.69 -40.845,-81.689 -14.311,7.156 47.933,95.867 -69.2,-34.6 -7.155,14.311 L 350.111,480 H 337.41 l -68.094,-24.762 c -7.964,-2.896 -13.315,-10.535 -13.315,-19.01 0,-11.154 9.074,-20.229 20.228,-20.229 6.465,0 12.94,1.528 18.723,4.42 l 45.104,22.552 -39.464,-69.062 c -3.003,-5.257 -4.591,-11.234 -4.591,-17.288 0,-11.371 9.251,-20.622 20.622,-20.622 8.481,0 15.997,5.088 19.147,12.963 L 368,429.541 400.231,348.963 C 403.381,341.088 410.896,336 419.378,336 Z"
       id="path6" /><path
       d="m 325.128,155.854 c -1.278,2.558 -3.849,4.146 -6.708,4.146 -2.003,0 -3.887,-0.78 -5.304,-2.197 l -9.116,-9.117 -9.117,9.117 c -1.417,1.417 -3.3,2.197 -5.304,2.197 -2.859,0 -5.43,-1.588 -6.708,-4.146 l -3.716,-7.432 -14.311,7.155 3.715,7.432 c 4.006,8.013 12.061,12.991 21.02,12.991 5.291,0 10.314,-1.737 14.42,-4.94 4.106,3.203 9.13,4.94 14.42,4.94 8.959,0 17.013,-4.978 21.019,-12.991 l 3.716,-7.432 -14.311,-7.155 z"
       id="path7" /><path
       d="m 184.821,108.238 -0.411,1.231 15.179,5.062 0.411,-1.232 C 203.449,102.952 213.094,96 224,96 h 4.944 l 5.927,-11.854 C 236.15,81.588 238.72,80 241.58,80 c 2.003,0 3.887,0.78 5.304,2.197 l 3.46,3.46 11.313,-11.313 -3.46,-3.46 C 253.758,66.444 247.857,64 241.58,64 c -8.959,0 -17.013,4.978 -21.019,12.991 l -1.662,3.322 c -15.653,1.935 -28.992,12.669 -34.078,27.925 z"
       id="path8" /><path
       d="M 72,99.313 C 74.137,97.177 76.978,96 80,96 c 3.022,0 5.863,1.177 8,3.313 l 8,8 6.847,-6.847 c 2.881,-2.88 6.71,-4.467 10.784,-4.467 5.814,0 11.041,3.23 13.641,8.43 l 3.785,7.57 H 136 c 10.906,0 20.551,6.952 24,17.299 l 0.411,1.231 15.179,-5.062 -0.411,-1.23 C 170.092,108.973 156.742,98.236 141.079,96.309 135.599,86.221 125.18,80 113.63,80 107.324,80 101.302,81.856 96.19,85.308 91.526,81.862 85.906,80 80,80 72.704,80 65.845,82.841 60.687,88 l -2.343,2.343 11.313,11.313 z"
       id="path9" /><path
       d="M 153.364,77.206 C 155.997,69.307 163.36,64 171.687,64 h 1 c 5.159,0 10.009,2.009 13.657,5.657 L 197.657,58.344 C 190.987,51.673 182.119,48 172.687,48 h -1 c -15.224,0 -28.688,9.704 -33.501,24.146 l -1.774,5.324 15.179,5.06 z"
       id="path10" /><path
       d="m 304,120.984 0.239,0.956 15.522,-3.879 -0.239,-0.957 C 314.061,95.258 294.519,80 272,80 v 16 c 15.163,0 28.322,10.274 32,24.984 z"
       id="path11" /><path
       d="m 440,144 c 7.296,0 14.155,-2.841 19.313,-8 l 2.343,-2.343 -11.313,-11.313 -2.343,2.343 c -2.137,2.137 -4.978,3.313 -8,3.313 -3.022,0 -5.863,-1.177 -8,-3.313 l -2.343,-2.343 -11.313,11.313 2.343,2.343 c 5.158,5.159 12.017,8 19.313,8 z"
       id="path12" /><path
       d="m 328,67.313 c 2.137,-2.137 4.978,-3.313 8,-3.313 3.022,0 5.863,1.177 8,3.313 l 2.343,2.343 L 357.656,58.343 355.313,56 C 350.154,50.841 343.295,48 336,48 c -7.295,0 -14.155,2.841 -19.313,8 l -2.343,2.343 11.313,11.313 z"
       id="path13" /></g><text
     x="-85.981621"
     y="520.3233"
     fill="#000000"
     font-size="5px"
     font-weight="bold"
     font-family="'Helvetica Neue', Helvetica, Arial-Unicode, Arial, Sans-serif"
     id="text13">Created by Eucalyp</text><text
     x="-85.981621"
     y="525.3233"
     fill="#000000"
     font-size="5px"
     font-weight="bold"
     font-family="'Helvetica Neue', Helvetica, Arial-Unicode, Arial, Sans-serif"
     id="text14">from the Noun Project</text></svg>
