<?xml version="1.0" encoding="UTF-8" standalone="no"?>
<svg
   version="1.1"
   viewBox="-5 -10 512 512"
   id="svg20"
   sodipodi:docname="noun-beach-7929519.svg"
   width="512"
   height="512"
   inkscape:version="1.4.2 (f4327f4, 2025-05-13)"
   inkscape:export-filename="beach.png"
   inkscape:export-xdpi="96"
   inkscape:export-ydpi="96"
   xmlns:inkscape="http://www.inkscape.org/namespaces/inkscape"
   xmlns:sodipodi="http://sodipodi.sourceforge.net/DTD/sodipodi-0.dtd"
   xmlns="http://www.w3.org/2000/svg"
   xmlns:svg="http://www.w3.org/2000/svg">
  <defs
     id="defs20" />
  <sodipodi:namedview
     id="namedview20"
     pagecolor="#505050"
     bordercolor="#eeeeee"
     borderopacity="1"
     inkscape:showpageshadow="0"
     inkscape:pageopacity="0"
     inkscape:pagecheckerboard="0"
     inkscape:deskcolor="#d1d1d1"
     inkscape:zoom="2"
     inkscape:cx="154.25"
     inkscape:cy="255.25"
     inkscape:window-width="2560"
     inkscape:window-height="1377"
     inkscape:window-x="-8"
     inkscape:window-y="-8"
     inkscape:window-maximized="1"
     inkscape:current-layer="svg20" />
  <g
     id="g20"
     transform="matrix(5.6436786,0,0,5.6436786,-31.30241,-40.761643)">
    <path
       d="m 93.75,62.5 c 0.85938,0 1.5625,-0.70312 1.5625,-1.5625 0,-0.85938 -0.70312,-1.5625 -1.5625,-1.5625 H 83.438 c 0.59375,-1.4688 0.9375,-3.0469 0.9375,-4.6875 0,-6.8906 -5.6094,-12.5 -12.5,-12.5 -6.8906,0 -12.5,5.6094 -12.5,12.5 0,1.6406 0.34375,3.2188 0.9375,4.6875 h -25 L 33.6568,26.219 c 5.7031,1.7031 10.172,5.5625 12.141,7.25 0.26562,0.21875 0.46875,0.40625 0.64062,0.54688 0.28125,0.23438 0.64062,0.35938 0.98438,0.35938 0.26562,0 0.53125,-0.0625 0.76562,-0.20312 0.5625,-0.3125 0.875,-0.9375 0.78125,-1.5781 l -0.28125,-1.9531 c -0.84375,-5.875 -4.3906,-10.906 -9.4688,-13.562 0.67188,-0.32812 1.3906,-0.57812 2.125,-0.75 3.7031,-0.875 6.75,0.5 7.8906,1.125 0.5625,0.3125 1.2656,0.25 1.7656,-0.17188 0.5,-0.42188 0.6875,-1.1094 0.46875,-1.7188 -0.40625,-1.125 -2.7031,-6.8438 -8.7344,-8.6875 -1.4062,-0.4375 -4.2344,-1 -7.375,0 -3.7031,1.1875 -5.9375,3.9531 -7.25,6.3281 -1.2969,-2.3906 -3.5469,-5.1406 -7.25,-6.3281 -3.1406,-1.0156 -5.9688,-0.4375 -7.375,0 -6.0312,1.8594 -8.3281,7.5625 -8.7344,8.6875 -0.21875,0.60938 -0.03125,1.2969 0.46875,1.7188 0.5,0.4219 1.2031,0.48438 1.7656,0.17188 1.1406,-0.64062 4.1719,-2.0156 7.8906,-1.125 0.73438,0.17188 1.4375,0.42188 2.125,0.75 -5.0625,2.6562 -8.625,7.6875 -9.4688,13.562 l -0.28125,1.9531 c -0.09375,0.64062 0.21875,1.2656 0.78125,1.5781 0.5625,0.3125 1.2656,0.25 1.75,-0.15625 0.17188,-0.14062 0.375,-0.3125 0.64062,-0.54688 1.9688,-1.7031 6.4375,-5.5469 12.141,-7.25 l -1.6562,33.156 h -14.656 c -0.85938,0 -1.5625,0.70312 -1.5625,1.5625 0,0.85938 0.70312,1.5625 1.5625,1.5625 h 14.531 l -0.46875,9.2969 c -0.04687,0.85938 0.625,1.5938 1.4844,1.6406 h 0.07813 c 0.82812,0 1.5156,-0.65625 1.5625,-1.4844 l 2.3281,-46.406 c 0.78125,-0.10938 1.5625,-0.17188 2.375,-0.17188 0.8125,0 1.5938,0.0625 2.375,0.17188 l 2.3281,46.406 c 0.04687,0.82812 0.73438,1.4844 1.5625,1.4844 h 0.07813 c 0.85938,-0.04687 1.5312,-0.78125 1.4844,-1.6406 l -0.46875,-9.2969 h 5.75 c 0.75,1.5625 1.0938,3.0938 0.98438,4.5781 -0.15625,2 -1.1094,3.6094 -1.9531,5.0156 -1.0156,1.6875 -2.0469,3.4375 -0.9375,5.2344 1.3438,2.1875 4.4531,2.3125 5.9531,2.3594 2.3594,0.09375 4.0469,-0.53125 5.4062,-1.0469 1.3438,-0.5 2.3125,-0.875 3.7031,-0.5625 0.45312,0.10938 1.5156,0.34375 2.3906,1.1719 1.1406,1.0781 1.2031,2.5312 1.2812,4.2031 0.09375,1.8281 0.1875,3.8906 1.9688,5.2656 2.3594,1.8438 6.0469,0.98438 7.8438,0.20312 1.3906,-0.60938 2.1875,-1.4062 2.8281,-2.0312 0.625,-0.625 0.90625,-0.875 1.5,-0.98438 1.3906,-0.23438 2.8125,0.78125 3.5,1.2812 1.4688,1.0625 2.0312,2.1719 2.625,3.3281 0.48438,0.9375 0.98438,1.9219 1.9062,2.7969 1.3906,1.3125 3.3281,1.9688 5.8125,1.9688 2.2656,0 5,-0.54688 8.25,-1.625 0.8125,-0.26562 1.2656,-1.1562 0.98438,-1.9844 -0.26562,-0.8125 -1.1562,-1.2656 -1.9688,-0.98438 -5.4531,1.8125 -9.2344,1.9375 -10.938,0.34375 -0.53125,-0.5 -0.84375,-1.125 -1.2656,-1.9375 -0.67188,-1.3125 -1.5,-2.9375 -3.5938,-4.4531 -0.95312,-0.6875 -3.1562,-2.2812 -5.8594,-1.8281 -1.5781,0.26562 -2.4062,1.1094 -3.1562,1.8438 -0.53125,0.51562 -1.0312,1.0156 -1.8906,1.4062 -1.2969,0.57812 -3.6094,1.0156 -4.6562,0.20312 -0.60938,-0.48438 -0.6875,-1.4375 -0.76562,-2.9531 -0.09375,-1.9531 -0.20312,-4.375 -2.25,-6.3125 -1.4844,-1.4219 -3.2188,-1.8125 -3.8594,-1.9531 -2.2812,-0.51562 -3.9844,0.125 -5.4688,0.67188 -1.2656,0.46875 -2.4531,0.90625 -4.1875,0.84375 -2.4375,-0.09375 -3.2031,-0.53125 -3.4219,-0.875 -0.04687,-0.29688 0.5625,-1.3281 0.96875,-2 0.92188,-1.5312 2.1719,-3.6406 2.375,-6.375 0.125,-1.5781 -0.14062,-3.1875 -0.71875,-4.7969 h 49.156 z M 11.125,28.891 c 1.3281,-4.5156 4.6406,-8.1562 9,-9.7969 0.125,-0.04687 0.25,-0.07813 0.39062,-0.125 l 0.34375,-0.10938 c 0.53125,-0.1875 0.9375,-0.64062 1.0312,-1.1875 0.0937,-0.54688 -0.09375,-1.125 -0.53125,-1.4844 -1.7031,-1.4219 -3.6406,-2.3906 -5.75,-2.8906 -2.2344,-0.53125 -4.2812,-0.42188 -5.9688,-0.07813 1.0625,-1.3281 2.6094,-2.6719 4.7812,-3.3438 1.0469,-0.32812 3.1719,-0.75 5.5,0 3.7812,1.2188 5.5938,4.7812 6.3281,6.7969 0.23438,0.60938 0.8125,1.0156 1.4688,1.0156 h 0.29688 0.20312 0.28125 c 0.6875,0 1.25,-0.40625 1.4844,-1.0156 0.75,-2.0156 2.5469,-5.5781 6.3281,-6.7969 2.3281,-0.75 4.4375,-0.3125 5.5,0 2.1719,0.67188 3.7188,2.0156 4.7812,3.3438 -1.6875,-0.34375 -3.7344,-0.45312 -5.9688,0.07813 -2.1094,0.5 -4.0469,1.4688 -5.75,2.8906 -0.4375,0.35938 -0.64062,0.9375 -0.53125,1.4844 0.10937,0.5469 0.5,1.0156 1.0312,1.1875 l 0.34375,0.10938 c 0.125,0.04687 0.26562,0.07813 0.375,0.125 4.375,1.625 7.6875,5.2812 9.0156,9.7969 -3.6719,-2.8125 -9.8438,-6.6406 -17,-6.6406 -7.1562,0 -13.328,3.8281 -17,6.6406 z M 62.5,54.688 c 0,-5.1719 4.2031,-9.375 9.375,-9.375 5.1719,0 9.375,4.2031 9.375,9.375 0,1.6875 -0.45312,3.2812 -1.2812,4.6875 h -16.172 c -0.82812,-1.4062 -1.2812,-3 -1.2812,-4.6875 z"
       id="path1" />
    <path
       d="m 70.312,31.25 v 4.6875 c 0,0.85938 0.70312,1.5625 1.5625,1.5625 0.85938,0 1.5625,-0.70312 1.5625,-1.5625 V 31.25 c 0,-0.85938 -0.70312,-1.5625 -1.5625,-1.5625 -0.85938,0 -1.5625,0.70312 -1.5625,1.5625 z"
       id="path2" />
    <path
       d="m 91.406,41.641 -4.0625,2.3438 c -0.75,0.4375 -1,1.3906 -0.57812,2.1406 0.28125,0.5 0.8125,0.78125 1.3594,0.78125 0.26562,0 0.53125,-0.0625 0.78125,-0.20312 l 4.0625,-2.3438 c 0.75,-0.4375 1,-1.3906 0.57812,-2.1406 -0.4375,-0.75 -1.3906,-1 -2.1406,-0.57812 z"
       id="path3" />
    <path
       d="m 55.625,46.891 c 0.54688,0 1.0625,-0.28125 1.3594,-0.78125 0.4375,-0.75 0.17188,-1.7031 -0.57812,-2.1406 l -4.0625,-2.3438 c -0.75,-0.42188 -1.7031,-0.17188 -2.1406,0.57812 -0.4375,0.75 -0.17188,1.7031 0.57812,2.1406 l 4.0625,2.3438 c 0.25,0.14062 0.51562,0.20312 0.78125,0.20312 z"
       id="path4" />
    <path
       d="m 60.156,34.391 c -0.75,0.4375 -1,1.3906 -0.57812,2.1406 l 1.5625,2.7031 c 0.29688,0.5 0.8125,0.78125 1.3594,0.78125 0.26562,0 0.53125,-0.0625 0.78125,-0.20312 0.75,-0.4375 1,-1.3906 0.57812,-2.1406 l -1.5625,-2.7031 c -0.4375,-0.75 -1.3906,-1 -2.1406,-0.57812 z"
       id="path5" />
    <path
       d="m 81.453,34.969 -1.5625,2.7031 c -0.4375,0.75 -0.17188,1.7031 0.57812,2.1406 0.25,0.14062 0.51562,0.20312 0.78125,0.20312 0.54688,0 1.0625,-0.28125 1.3594,-0.78125 l 1.5625,-2.7031 c 0.4375,-0.75 0.17188,-1.7031 -0.57812,-2.1406 -0.75,-0.4375 -1.7031,-0.17188 -2.1406,0.57812 z"
       id="path6" />
    <path
       d="m 93.75,53.125 h -3.125 c -0.85938,0 -1.5625,0.70312 -1.5625,1.5625 0,0.85938 0.70312,1.5625 1.5625,1.5625 h 3.125 c 0.85938,0 1.5625,-0.70312 1.5625,-1.5625 0,-0.85938 -0.70312,-1.5625 -1.5625,-1.5625 z"
       id="path7" />
    <path
       d="m 50,53.125 c -0.85938,0 -1.5625,0.70312 -1.5625,1.5625 0,0.85938 0.70312,1.5625 1.5625,1.5625 h 3.125 c 0.85938,0 1.5625,-0.70312 1.5625,-1.5625 0,-0.85938 -0.70312,-1.5625 -1.5625,-1.5625 z"
       id="path8" />
    <path
       d="m 14.062,71.875 c 0,2.082 -3.125,2.082 -3.125,0 0,-2.082 3.125,-2.082 3.125,0"
       id="path9" />
    <path
       d="m 20.312,81.25 c 0,2.082 -3.125,2.082 -3.125,0 0,-2.082 3.125,-2.082 3.125,0"
       id="path10" />
    <path
       d="m 39.062,85.938 c 0,2.082 -3.125,2.082 -3.125,0 0,-2.082 3.125,-2.082 3.125,0"
       id="path11" />
    <path
       d="m 15.625,90.625 c 0,2.082 -3.125,2.082 -3.125,0 0,-2.082 3.125,-2.082 3.125,0"
       id="path12" />
    <path
       d="m 29.688,90.625 c 0,2.082 -3.125,2.082 -3.125,0 0,-2.082 3.125,-2.082 3.125,0"
       id="path13" />
    <path
       d="m 51.562,84.375 c 0,2.082 -3.125,2.082 -3.125,0 0,-2.082 3.125,-2.082 3.125,0"
       id="path14" />
    <path
       d="m 29.688,78.125 c 0,2.082 -3.125,2.082 -3.125,0 0,-2.082 3.125,-2.082 3.125,0"
       id="path15" />
    <path
       d="m 9.375,81.25 c 0,2.082 -3.125,2.082 -3.125,0 0,-2.082 3.125,-2.082 3.125,0"
       id="path16" />
    <path
       d="m 46.875,93.75 c 0,2.082 -3.125,2.082 -3.125,0 0,-2.082 3.125,-2.082 3.125,0"
       id="path17" />
    <path
       d="m 73.438,93.75 c 0,2.082 -3.125,2.082 -3.125,0 0,-2.082 3.125,-2.082 3.125,0"
       id="path18" />
    <path
       d="m 57.812,93.75 c 0,2.082 -3.125,2.082 -3.125,0 0,-2.082 3.125,-2.082 3.125,0"
       id="path19" />
  </g>
  <text
     x="-97.53302"
     y="72.645477"
     font-size="5px"
     font-weight="bold"
     font-family="'Arbeit Regular', Helvetica, Arial-Unicode, Arial, Sans-serif"
     fill="#000000"
     id="text19">Created by Anggara Putra</text>
  <text
     x="-97.53302"
     y="77.645477"
     font-size="5px"
     font-weight="bold"
     font-family="'Arbeit Regular', Helvetica, Arial-Unicode, Arial, Sans-serif"
     fill="#000000"
     id="text20">from Noun Project</text>
</svg>
