<?xml version="1.0" encoding="UTF-8" standalone="no"?>
<svg
   viewBox="0 0 512 512"
   x="0px"
   y="0px"
   version="1.1"
   id="svg2"
   sodipodi:docname="noun-grass-2147523.svg"
   width="512"
   height="512"
   inkscape:export-filename="plains.png"
   inkscape:export-xdpi="96"
   inkscape:export-ydpi="96"
   inkscape:version="1.4.2 (f4327f4, 2025-05-13)"
   xmlns:inkscape="http://www.inkscape.org/namespaces/inkscape"
   xmlns:sodipodi="http://sodipodi.sourceforge.net/DTD/sodipodi-0.dtd"
   xmlns="http://www.w3.org/2000/svg"
   xmlns:svg="http://www.w3.org/2000/svg"
   xmlns:rdf="http://www.w3.org/1999/02/22-rdf-syntax-ns#"
   xmlns:cc="http://creativecommons.org/ns#"
   xmlns:dc="http://purl.org/dc/elements/1.1/">
  <defs
     id="defs2" />
  <sodipodi:namedview
     id="namedview2"
     pagecolor="#505050"
     bordercolor="#eeeeee"
     borderopacity="1"
     inkscape:showpageshadow="0"
     inkscape:pageopacity="0"
     inkscape:pagecheckerboard="0"
     inkscape:deskcolor="#d1d1d1"
     inkscape:zoom="2"
     inkscape:cx="68.25"
     inkscape:cy="160.75"
     inkscape:window-width="2560"
     inkscape:window-height="1377"
     inkscape:window-x="-8"
     inkscape:window-y="-8"
     inkscape:window-maximized="1"
     inkscape:current-layer="svg2" />
  <title
     id="title1">Artboard 18</title>
  <path
     d="M 484.25038,173.49887 A 12.793625,12.793625 0 0 0 469.55015,154.2617 c -50.22216,16.73732 -88.98957,70.58124 -112.24273,150.21277 -7.1373,-68.1691 -9.22498,-157.12546 24.54274,-207.775765 A 12.793625,12.793625 0 0 0 367.14998,77.461535 C 303.32967,98.725573 273.44994,152.94263 257.67779,214.41157 238.76378,117.81615 205.39927,30.787545 146.52426,1.3474486 A 12.808985,12.808985 0 0 0 128.37449,15.897257 C 146.89931,89.987653 152.62923,186.47871 145.15143,275.524 121.44388,211.8554 86.323195,168.8819 42.449796,154.25974 a 12.793625,12.793625 0 0 0 -14.700178,19.23719 c 46.725206,70.08781 24.200359,270.00117 -0.799992,319.97569 a 12.801791,12.801791 0 0 0 22.900531,11.45025 C 73.299784,458.04791 96.300155,292.78485 66.298214,197.05985 120.27463,243.0491 153.59947,355.17474 153.59947,499.19996 a 12.800035,12.800035 0 0 0 25.60006,0 A 759.68537,759.68537 0 0 0 163.44142,338.67293 897.17741,897.17741 0 0 0 160.59918,43.448674 C 230.37469,115.44882 255.9997,319.27448 255.9997,499.19996 a 12.800025,12.800025 0 0 0 25.60001,0 1777.6599,1777.6599 0 0 0 -11.78303,-207.47562 c 11.27555,-92.5077 33.39396,-146.32344 73.5835,-174.25056 -28.15496,79.21614 -13.05604,186.56037 -2.04099,260.74931 a 817.6061,817.6061 0 0 0 -8.55939,120.97687 12.80004,12.80004 0 0 0 25.60008,0 c 0,-144.02522 33.32489,-256.15086 87.30003,-302.13817 -30.00007,95.72497 -6.99973,260.98801 16.44804,307.86297 a 12.801783,12.801783 0 0 0 22.9005,-11.45025 C 460.05002,443.49999 437.52514,243.58792 484.25038,173.49887 Z"
     id="path1"
     style="stroke-width:6.40002" />
  <text
     x="-112.72149"
     y="126.59587"
     fill="#000000"
     font-size="5px"
     font-weight="bold"
     font-family="'Helvetica Neue', Helvetica, Arial-Unicode, Arial, Sans-serif"
     id="text1">Created by Deemak Daksina</text>
  <text
     x="-112.72149"
     y="131.59587"
     fill="#000000"
     font-size="5px"
     font-weight="bold"
     font-family="'Helvetica Neue', Helvetica, Arial-Unicode, Arial, Sans-serif"
     id="text2">from the Noun Project</text>
  <metadata
     id="metadata2">
    <rdf:RDF>
      <cc:Work
         rdf:about="">
        <dc:title>Artboard 18</dc:title>
      </cc:Work>
    </rdf:RDF>
  </metadata>
</svg>
