<?xml version="1.0" encoding="UTF-8" standalone="no"?>
<svg
   version="1.1"
   viewBox="-5 -10 512 512"
   id="svg2"
   sodipodi:docname="noun-lake-7942078.svg"
   width="512"
   height="512"
   inkscape:version="1.4.2 (f4327f4, 2025-05-13)"
   inkscape:export-filename="lake.png"
   inkscape:export-xdpi="96"
   inkscape:export-ydpi="96"
   xmlns:inkscape="http://www.inkscape.org/namespaces/inkscape"
   xmlns:sodipodi="http://sodipodi.sourceforge.net/DTD/sodipodi-0.dtd"
   xmlns="http://www.w3.org/2000/svg"
   xmlns:svg="http://www.w3.org/2000/svg">
  <defs
     id="defs2" />
  <sodipodi:namedview
     id="namedview2"
     pagecolor="#505050"
     bordercolor="#eeeeee"
     borderopacity="1"
     inkscape:showpageshadow="0"
     inkscape:pageopacity="0"
     inkscape:pagecheckerboard="0"
     inkscape:deskcolor="#d1d1d1"
     inkscape:zoom="1.56742"
     inkscape:cx="360.78396"
     inkscape:cy="236.3757"
     inkscape:window-width="2560"
     inkscape:window-height="1377"
     inkscape:window-x="-8"
     inkscape:window-y="-8"
     inkscape:window-maximized="1"
     inkscape:current-layer="svg2" />
  <path
     d="M 251.00276,394.48768 C 375.10708,394.48768 507,366.21905 507,313.84296 c 0,-21.07669 -22.52984,-39.97271 -65.15734,-54.60809 -8.32046,-2.85695 -12.73121,-11.70341 -10.72632,-21.50267 0.25084,-1.27813 0.40099,-2.58129 0.40099,-3.85941 0,-14.98631 -17.7181,-27.04067 -45.13538,-35.96292 l -41.20388,-9.97743 c -14.36014,-2.55626 -29.77245,-4.53607 -45.71149,-5.93948 5.7139,-7.14254 8.64636,-15.43734 8.1947,-24.03368 -0.60115,-11.75346 -7.49348,-22.35468 -17.96894,-27.71752 -9.19748,-4.68645 -19.97384,-4.83683 -30.57443,-0.60114 -3.60879,-21.15176 -18.44499,-32.128295 -33.10603,-32.128295 -14.15934,0 -28.44442,10.225255 -32.68003,29.898215 -5.3631,-2.88204 -11.40255,-4.23535 -17.74312,-3.8594 -9.2225,0.52609 -18.69584,4.53605 -26.61468,11.32746 -7.9445,6.7666 -13.38241,15.48802 -15.36228,24.50971 -2.1803,9.94939 0.15019,19.77303 6.44068,27.89332 -51.500358,8.67138 -90.017975,24.43464 -90.017975,46.5635 0,3.05745 0.72676,6.11488 2.180281,9.02169 1.954789,4.00977 2.180299,8.57065 0.576139,12.90635 -1.629008,4.41076 -5.01223,7.99454 -9.272539,9.82364 C 11.766018,279.15503 -5,295.84534 -5,313.86431 c 0,52.353 131.89933,80.61906 255.99724,80.61906 z M 146.16849,162.12376 c 1.35332,-6.21515 5.41319,-12.60546 11.15232,-17.4929 10.2753,-8.77148 26.03856,-12.73122 36.33887,-0.67667 1.7543,2.05499 4.58616,2.78177 7.0925,1.85452 2.53118,-0.92727 4.21027,-3.33313 4.21027,-6.01468 0,-20.22406 10.9265,-29.42151 21.10172,-29.42151 5.31292,0 10.30032,2.40586 14.05926,6.74156 4.61124,5.338 7.04244,13.18223 7.04244,22.68059 0,2.35577 1.27814,4.51098 3.35822,5.63878 2.05499,1.12775 4.56114,1.02753 6.56578,-0.25085 9.5484,-6.19007 19.0718,-7.41778 26.84049,-3.45842 6.41567,3.25793 10.62561,9.7736 11.00157,16.94116 0.426,8.2454 -4.08499,16.0141 -12.65616,22.05379 -13.73334,-0.85207 -27.66748,-1.27812 -41.47588,-1.27812 -30.04833,0 -60.69781,2.02998 -88.41407,5.96456 0.22584,-1.72921 -0.20016,-3.5587 -1.4285,-4.98714 -4.66137,-5.43828 -6.26527,-11.57832 -4.78665,-18.29486 z M 48.554377,277.3809 c 7.493478,-3.20783 13.407419,-9.44832 16.264958,-17.16699 2.831929,-7.66862 2.43095,-15.83895 -1.102721,-23.0309 -0.576138,-1.15282 -0.852069,-2.25548 -0.852069,-3.33312 0,-17.36717 67.665855,-41.57662 177.886705,-41.57662 110.22087,0 177.88673,24.20881 177.88673,41.57662 0,0.426 -0.0514,0.85206 -0.12511,1.30315 -3.28301,16.03912 4.76164,31.27628 19.14689,36.21312 35.91287,12.33025 56.51287,27.81762 56.51287,42.47865 0,32.07826 -99.866,67.81342 -243.16594,67.81342 -143.29995,0 -243.1659427,-35.73707 -243.1659427,-67.81342 0,-12.30521 14.4602377,-25.26161 40.7246157,-36.46397 z m 53.956893,-33.20611 c 0,-3.53361 2.85695,-6.41565 6.41564,-6.41565 11.72846,0 17.99398,4.51101 23.03091,8.16969 4.46086,3.20783 7.96951,5.73899 15.53807,5.73899 7.56853,0 11.10227,-2.53116 15.56308,-5.73899 5.0373,-3.6339 11.32746,-8.16969 23.05655,-8.16969 11.72909,0 17.99398,4.53604 23.05656,8.16969 4.46087,3.20783 7.96952,5.73899 15.53806,5.73899 7.59357,0 11.10228,-2.53116 15.56309,-5.73899 5.06233,-3.6339 11.32747,-8.16969 23.05655,-8.16969 11.7291,0 18.019,4.51101 23.05657,8.16969 4.46086,3.20783 7.96952,5.73899 15.5881,5.73899 7.59357,0 11.10229,-2.53116 15.56308,-5.73899 5.06234,-3.6339 11.32749,-8.16969 23.05656,-8.16969 3.55869,0 6.41566,2.88204 6.41566,6.41565 0,3.5336 -2.85697,6.41564 -6.41566,6.41564 -7.59355,0 -11.12729,2.53118 -15.58809,5.73899 -5.06234,3.63389 -11.32748,8.1697 -23.05657,8.1697 -11.72909,0 -18.01899,-4.51099 -23.05655,-8.1697 -4.46087,-3.20781 -7.96952,-5.73899 -15.58812,-5.73899 -7.56854,0 -11.10228,2.53118 -15.56308,5.73899 -5.06232,3.63389 -11.32746,8.1697 -23.05655,8.1697 -11.70343,0 -17.99398,-4.51099 -23.03091,-8.1697 -4.46086,-3.20781 -7.96952,-5.73899 -15.53805,-5.73899 -7.56855,0 -11.10229,2.53118 -15.53807,5.73899 -5.03731,3.63389 -11.32747,8.1697 -23.05655,8.1697 -11.7291,0 -17.99398,-4.51099 -23.05656,-8.1697 -4.46087,-3.20781 -7.96952,-5.73899 -15.53808,-5.73899 -3.5336,0 -6.41564,-2.85694 -6.41564,-6.41564 z m 241.01028,61.37466 c 11.7785,0 18.09406,4.53607 23.18168,8.19472 4.48594,3.23291 8.01956,5.78909 15.68818,5.78909 7.6436,0 11.20236,-2.55626 15.68818,-5.78909 5.06233,-3.65892 11.37751,-8.19472 23.15666,-8.19472 3.55869,0 6.41564,2.88204 6.41564,6.41565 0,3.5336 -2.85695,6.41565 -6.41564,6.41565 -7.64362,0 -11.17736,2.55626 -15.6882,5.7891 -5.06232,3.65891 -11.3775,8.19471 -23.18166,8.19471 -11.7785,0 -18.09405,-4.53606 -23.15664,-8.19471 -4.48596,-3.23292 -8.01957,-5.7891 -15.6882,-5.7891 -7.6436,0 -11.17734,2.55626 -15.66315,5.7891 -5.06234,3.65891 -11.37752,8.19471 -23.15667,8.19471 -11.77847,0 -18.06901,-4.53606 -23.15663,-8.19471 -4.48594,-3.23292 -8.01956,-5.76408 -15.63814,-5.76408 -7.64362,0 -11.17736,2.55626 -15.66318,5.76408 -5.06232,3.65891 -11.3775,8.19471 -23.15663,8.19471 -11.77851,0 -18.09406,-4.53606 -23.15665,-8.19471 -4.48596,-3.23292 -8.01956,-5.76408 -15.66317,-5.76408 -3.55869,0 -6.41565,-2.88204 -6.41565,-6.41564 0,-3.53362 2.85696,-6.41566 6.41565,-6.41566 11.77849,0 18.09406,4.53606 23.15665,8.19471 4.48594,3.23292 8.01957,5.76408 15.66317,5.76408 7.61858,0 11.17733,-2.55626 15.66315,-5.76408 5.06234,-3.6589 11.37752,-8.19471 23.15666,-8.19471 11.77848,0 18.06903,4.53606 23.15664,8.19471 4.48595,3.23292 8.01955,5.76408 15.63813,5.76408 7.64363,0 11.17737,-2.55626 15.66318,-5.76408 5.06233,-3.6589 11.37751,-8.21973 23.15664,-8.21973 z"
     id="path1"
     sodipodi:nodetypes="csccsccccccscccccscccsccccccsscscccccscccccccsssccsssccsscscscscscscssscscscscscscssscscssscscscscscscssscscscscs"
     style="stroke-width:6.41564" />
  <text
     x="-63.834587"
     y="69.793236"
     font-size="5px"
     font-weight="bold"
     font-family="'Arbeit Regular', Helvetica, Arial-Unicode, Arial, Sans-serif"
     fill="#000000"
     id="text1">Created by Pong Pong</text>
  <text
     x="-63.834587"
     y="74.793236"
     font-size="5px"
     font-weight="bold"
     font-family="'Arbeit Regular', Helvetica, Arial-Unicode, Arial, Sans-serif"
     fill="#000000"
     id="text2">from Noun Project</text>
</svg>
