<?xml version="1.0" encoding="UTF-8" standalone="no"?>
<svg
   version="1.1"
   viewBox="-5 -10 512 512"
   id="svg2"
   sodipodi:docname="brush.svg"
   width="512"
   height="512"
   inkscape:version="1.4.2 (ebf0e940d0, 2025-05-08)"
   inkscape:export-filename="brush.png"
   inkscape:export-xdpi="96"
   inkscape:export-ydpi="96"
   xmlns:inkscape="http://www.inkscape.org/namespaces/inkscape"
   xmlns:sodipodi="http://sodipodi.sourceforge.net/DTD/sodipodi-0.dtd"
   xmlns="http://www.w3.org/2000/svg"
   xmlns:svg="http://www.w3.org/2000/svg">
  <defs
     id="defs2" />
  <sodipodi:namedview
     id="namedview2"
     pagecolor="#505050"
     bordercolor="#ffffff"
     borderopacity="1"
     inkscape:showpageshadow="0"
     inkscape:pageopacity="0"
     inkscape:pagecheckerboard="1"
     inkscape:deskcolor="#d1d1d1"
     inkscape:zoom="1.0475656"
     inkscape:cx="253.44475"
     inkscape:cy="221.46584"
     inkscape:window-width="1920"
     inkscape:window-height="1011"
     inkscape:window-x="0"
     inkscape:window-y="0"
     inkscape:window-maximized="1"
     inkscape:current-layer="svg2" />
  <path
     d="m 299.99593,292.29369 c -21.356,19.60037 -39.64562,35.68948 -51.20115,45.64526 -3.80009,-11.2671 -10.3779,-23.40063 -20.62268,-35.55636 -13.75605,-17.40042 -30.86747,-30.28946 -49.57865,-37.88999 10.08891,-11.71141 25.44527,-29.11183 44.17863,-49.44551 z M 499.5325,15.688013 C 458.42025,-25.424234 317.99598,112.22494 232.85985,204.25047 l 78.11019,78.1102 C 402.97282,197.07093 540.61858,56.802536 499.5325,15.688013 Z M 142.43293,271.15899 C 107.54332,269.20339 82.942884,288.1373 67.3436,312.8043 50.076298,340.11613 52.80987,358.53888 42.765342,406.22933 30.276244,465.452 -6.2136776,455.31929 -4.9689207,467.29524 c 1.1556099,11.11122 35.0898547,20.28931 91.5135207,14.91148 117.20512,-11.17778 147.84616,-67.77894 152.53391,-99.31316 1.71114,-11.55553 3.46677,-40.80106 -21.42256,-70.35607 -3.42229,-4.04455 -28.51165,-38.75643 -75.22587,-41.3785 z"
     id="path1"
     style="fill:#ffffff;stroke-width:5.68902" />
  <text
     x="-60.412498"
     y="18.612499"
     font-size="5px"
     font-weight="bold"
     font-family="'Arbeit Regular', Helvetica, Arial-Unicode, Arial, Sans-serif"
     fill="#000000"
     id="text1">Created by MihiMihi</text>
  <text
     x="-60.412498"
     y="23.612499"
     font-size="5px"
     font-weight="bold"
     font-family="'Arbeit Regular', Helvetica, Arial-Unicode, Arial, Sans-serif"
     fill="#000000"
     id="text2">from Noun Project</text>
</svg>
