<?xml version="1.0" encoding="UTF-8" standalone="no"?>
<svg
   version="1.1"
   viewBox="-5 -10 512 512"
   id="svg2"
   sodipodi:docname="eraser.svg"
   width="512"
   height="512"
   inkscape:version="1.4.2 (ebf0e940d0, 2025-05-08)"
   inkscape:export-filename="eraser.png"
   inkscape:export-xdpi="96"
   inkscape:export-ydpi="96"
   xmlns:inkscape="http://www.inkscape.org/namespaces/inkscape"
   xmlns:sodipodi="http://sodipodi.sourceforge.net/DTD/sodipodi-0.dtd"
   xmlns="http://www.w3.org/2000/svg"
   xmlns:svg="http://www.w3.org/2000/svg">
  <defs
     id="defs2" />
  <sodipodi:namedview
     id="namedview2"
     pagecolor="#505050"
     bordercolor="#ffffff"
     borderopacity="1"
     inkscape:showpageshadow="0"
     inkscape:pageopacity="0"
     inkscape:pagecheckerboard="1"
     inkscape:deskcolor="#d1d1d1"
     inkscape:zoom="1.0475656"
     inkscape:cx="216.21558"
     inkscape:cy="357.01821"
     inkscape:window-width="1920"
     inkscape:window-height="1011"
     inkscape:window-x="0"
     inkscape:window-y="0"
     inkscape:window-maximized="1"
     inkscape:current-layer="svg2" />
  <path
     d="m 242.74902,435.61431 -50.90947,50.90946 c -20.62159,20.6216 -53.97625,20.6216 -74.59614,0 L 10.466203,379.74656 c -20.621597,-20.6216 -20.621597,-53.97625 0,-74.59614 l 50.909463,-50.90946 c 1.466608,1.75548 2.933216,3.51102 4.533224,5.11097 l 171.73098,171.73098 c 1.59995,1.62219 3.35543,3.06656 5.11097,4.53322 z M 267.85958,1.5595457 76.286361,193.15552 c -15.421542,15.42154 -15.421542,40.39899 0,55.82053 L 248.01734,420.70703 c 15.42154,15.42154 40.39899,15.42154 55.82053,0 L 495.43384,229.11105 c 15.42155,-15.42154 15.42155,-40.39899 0,-55.82053 L 323.6858,1.5595457 c -15.42154,-15.3993557 -40.39899,-15.3993557 -55.82053,0 z"
     id="path1"
     style="fill:#ffffff;stroke-width:5.68872" />
  <text
     x="-63.787498"
     y="38.525002"
     font-size="5px"
     font-weight="bold"
     font-family="'Arbeit Regular', Helvetica, Arial-Unicode, Arial, Sans-serif"
     fill="#000000"
     id="text1">Created by MihiMihi</text>
  <text
     x="-63.787498"
     y="43.525002"
     font-size="5px"
     font-weight="bold"
     font-family="'Arbeit Regular', Helvetica, Arial-Unicode, Arial, Sans-serif"
     fill="#000000"
     id="text2">from Noun Project</text>
</svg>
