<?xml version="1.0" encoding="UTF-8" standalone="no"?>
<svg
   version="1.1"
   viewBox="-5 -10 512 512"
   id="svg2"
   sodipodi:docname="eraser - Kopie.svg"
   width="512"
   height="512"
   inkscape:version="1.4.2 (f4327f4, 2025-05-13)"
   inkscape:export-filename="eraser_structures.png"
   inkscape:export-xdpi="96"
   inkscape:export-ydpi="96"
   xml:space="preserve"
   xmlns:inkscape="http://www.inkscape.org/namespaces/inkscape"
   xmlns:sodipodi="http://sodipodi.sourceforge.net/DTD/sodipodi-0.dtd"
   xmlns="http://www.w3.org/2000/svg"
   xmlns:svg="http://www.w3.org/2000/svg"><defs
     id="defs2" /><sodipodi:namedview
     id="namedview2"
     pagecolor="#505050"
     bordercolor="#ffffff"
     borderopacity="1"
     inkscape:showpageshadow="0"
     inkscape:pageopacity="0"
     inkscape:pagecheckerboard="1"
     inkscape:deskcolor="#d1d1d1"
     inkscape:zoom="1.0475656"
     inkscape:cx="149.39399"
     inkscape:cy="171.34965"
     inkscape:window-width="2560"
     inkscape:window-height="1377"
     inkscape:window-x="-8"
     inkscape:window-y="-8"
     inkscape:window-maximized="1"
     inkscape:current-layer="svg2"><inkscape:page
       x="0"
       y="0"
       width="512"
       height="512"
       id="page1"
       margin="0"
       bleed="0" /><sodipodi:guide
       position="177.07297,404.64247"
       orientation="227.55653,227.55653"
       id="guide6"
       inkscape:locked="false" /><sodipodi:guide
       position="414.55982,414.57497"
       orientation="247.41224,-247.41224"
       id="guide7"
       inkscape:locked="false" /></sodipodi:namedview><path
     d="m 242.74902,435.61431 -50.90947,50.90946 c -20.62159,20.6216 -53.97625,20.6216 -74.59614,0 L 10.466203,379.74656 c -20.621597,-20.6216 -20.621597,-53.97625 0,-74.59614 l 50.909463,-50.90946 c 1.466608,1.75548 2.933216,3.51102 4.533224,5.11097 l 171.73098,171.73098 c 1.59995,1.62219 3.35543,3.06656 5.11097,4.53322 z M 267.85958,1.5595457 76.286361,193.15552 c -15.421542,15.42154 -15.421542,40.39899 0,55.82053 L 248.01734,420.70703 c 15.42154,15.42154 40.39899,15.42154 55.82053,0 L 495.43384,229.11105 c 15.42155,-15.42154 15.42155,-40.39899 0,-55.82053 L 323.6858,1.5595457 c -15.42154,-15.3993557 -40.39899,-15.3993557 -55.82053,0 z"
     id="path1"
     style="fill:#ffffff;stroke-width:5.68872" /><text
     x="-63.787498"
     y="38.525002"
     font-size="5px"
     font-weight="bold"
     font-family="'Arbeit Regular', Helvetica, Arial-Unicode, Arial, Sans-serif"
     fill="#000000"
     id="text1">Created by MihiMihi</text><text
     x="-63.787498"
     y="43.525002"
     font-size="5px"
     font-weight="bold"
     font-family="'Arbeit Regular', Helvetica, Arial-Unicode, Arial, Sans-serif"
     fill="#000000"
     id="text2">from Noun Project</text><style
     type="text/css"
     id="style1">
	.st0{display:none;}
	.st1{display:inline;}
</style><g
     id="g5"
     transform="matrix(1.1086538,0,0,1.1086538,-29.409248,-46.508106)"
     style="fill:#000000;stroke:none;stroke-opacity:1;stroke-width:1.00031227;stroke-dasharray:none;stroke-linejoin:round;stroke-linecap:round;paint-order:normal"><path
       d="m 280.08014,121.22777 c -4.24229,-3.80874 -9.58031,-5.41816 -14.27718,-5.66253 -4.78227,-0.2667 -9.21901,0.75282 -13.1946,2.72485 -1.72372,0.90916 -3.37124,2.02721 -4.89921,3.36073 -0.6477,-3.38044 -2.75374,-6.11316 -5.21713,-7.67529 -2.50938,-1.61861 -5.39451,-2.20457 -8.323,-1.77102 -2.92981,0.52816 -5.98572,1.85773 -8.91026,5.42342 0.52027,2.04823 0.99192,3.66159 1.43731,5.024 -2.00357,-0.48085 -4.05443,-0.81061 -6.15127,-0.82374 -6.57036,-0.0235 -13.08293,2.26238 -18.1411,5.83331 -5.10416,3.56174 -8.89056,8.29409 -11.17923,13.49416 -2.18618,5.22764 -3.22538,10.97558 -1.39,17.10319 5.97127,-2.75243 10.32655,-5.35247 14.3363,-7.86053 3.94538,-2.5199 7.36655,-4.85847 10.56304,-7.06174 1.38739,-0.94857 2.71828,-1.88664 4.061,-2.82863 -0.7607,1.30593 -1.43995,2.64864 -1.91948,4.04785 -1.40184,4.13326 -1.54373,8.5621 -0.34291,12.70455 1.25076,4.14244 3.60904,8.0668 8.29278,11.16083 3.91516,-3.91385 6.1171,-7.06568 7.96037,-9.95213 1.53453,-2.51331 2.62237,-4.76125 3.4514,-7.00917 1.12855,19.56527 3.02438,54.18155 -26.30906,75.53099 h 23.56581 c 27.929,-22.91023 14.55834,-54.77146 13.19198,-76.17739 0.38363,0.47428 0.73836,0.99849 1.12726,1.45045 2.35434,2.759 4.93334,5.10679 7.76198,7.44405 2.92324,2.40953 6.02514,4.51294 10.29503,8.7132 4.50111,-4.07544 5.3367,-10.17154 4.48009,-15.19948 -0.87105,-5.15145 -3.31868,-9.65652 -6.48234,-13.29971 -2.14546,-2.44764 -4.65878,-4.4998 -7.42828,-6.18543 2.94557,0.70552 5.6888,1.13383 8.09175,1.2941 2.87199,0.17606 5.20533,-0.009 7.6661,-0.381 2.49098,-0.38494 5.56267,-0.84347 11.00054,1.3795 3.14525,-4.58651 1.21132,-11.10564 -3.11769,-14.80139 z"
       id="path1-8"
       style="fill:#000000;stroke-width:1.00031227;stroke:none;stroke-opacity:1;stroke-dasharray:none;stroke-linejoin:round;stroke-linecap:round;paint-order:normal" /><g
       id="g1"
       style="fill:#000000;stroke:none;stroke-opacity:1;stroke-width:0.76160268;stroke-dasharray:none;stroke-linejoin:round;stroke-linecap:round;paint-order:normal"
       transform="matrix(1.3134306,0,0,1.3134306,266.62344,103.85677)"><path
         d="M 66.375,30.844 C 63.0586,29.4729 59.582,28.5198 56.031,28.0002 v 8.3125 h 14.172 l -0.5,-3.9531 C 68.621,31.79319 67.5116,31.2893 66.3749,30.844 Z"
         id="path1-5"
         style="fill:#000000;stroke:none;stroke-opacity:1;stroke-width:0.76160268;stroke-dasharray:none;stroke-linejoin:round;stroke-linecap:round;paint-order:normal" /><path
         d="m 45.25,24.938 c 8.4648,-1.5195 16.379,0.49609 24,3.7344 l -2.0312,-16.25 C 66.85942,8.9927 64.0235,6.356 60.5782,6.2505 h -9.9688 c -0.53516,1.0391 -1.8984,3.6406 -2.4062,4.6406 l 1.0312,3.2031 c 0.21094,0.62891 -0.0039,1.3203 -0.53125,1.7188 l -5.6406,4.3125 c -0.6875,0.51172 -1.6602,0.38281 -2.1875,-0.29688 -0.25391,-0.32812 -0.36328,-0.74609 -0.30859,-1.1562 0.05469,-0.41016 0.27344,-0.78125 0.60547,-1.0312 l 4.75,-3.6406 -0.90625,-2.7656 c -0.12891,-0.65625 0.03516,-1.3359 0.45312,-1.8594 l 1.625,-3.125 h -7.6406 c -3.4531,0.10547 -6.293,2.7539 -6.6406,6.1875 l -2.0625,16.547 c 4.6406,-1.957 9.5156,-3.3164 14.5,-4.0469 z"
         id="path2"
         style="fill:#000000;stroke:none;stroke-opacity:1;stroke-width:0.76160268;stroke-dasharray:none;stroke-linejoin:round;stroke-linecap:round;paint-order:normal" /><path
         d="m 32.969,36.312 c 0.02734,0.01563 11,-0.01172 11.031,0 v -8 c -3.5469,0.63672 -7.0273,1.6094 -10.391,2.9062 -1.1172,0.45703 -2.3672,0.96094 -3.3125,1.4062 l -0.46875,3.6875 c 0.03125,0.0039 3.1055,-0.0039 3.1406,0 z"
         id="path3"
         style="fill:#000000;stroke:none;stroke-opacity:1;stroke-width:0.76160268;stroke-dasharray:none;stroke-linejoin:round;stroke-linecap:round;paint-order:normal" /><path
         d="m 84.664,90.625 h -14.68 c 0.07422,-3.0742 -0.22266,-13.527 -0.3125,-16.781 -0.375,-1.8477 -1.3281,-3.5273 -2.7188,-4.7969 4.1641,-1.5469 6.6875,-5.7891 6.0625,-10.188 l -2.4219,-19.422 h -14.562 v 12.625 c 0,0.41406 -0.16406,0.8125 -0.45703,1.1055 -0.29297,0.293 -0.69141,0.45703 -1.1055,0.45703 h -8.9062 c -0.41406,0 -0.8125,-0.16406 -1.1055,-0.45703 -0.293,-0.29297 -0.45703,-0.69141 -0.45703,-1.1055 v -12.625 c -2.25,0.0039 -12.508,-0.0039 -14.562,0 l -2.4219,19.422 c -0.62891,4.3984 1.8945,8.6406 6.0625,10.188 -1.9336,1.832 -3.0312,4.3828 -3.0312,7.0469 v 14.531 h -14.684 c -0.86328,0 -1.5625,0.69922 -1.5625,1.5625 0,0.86328 0.69922,1.5625 1.5625,1.5625 h 69.301 c 0.85156,-0.01563 1.5312,-0.71094 1.5312,-1.5625 0,-0.85156 -0.67969,-1.5469 -1.5312,-1.5625 z M 39.75,57.563 h 21.891 c 0.85547,0.01172 1.5391,0.70703 1.5391,1.5625 0,0.85547 -0.68359,1.5508 -1.5391,1.5625 H 39.75 c -0.85156,-0.01563 -1.5352,-0.71094 -1.5352,-1.5625 0,-0.85156 0.68359,-1.5469 1.5352,-1.5625 z"
         id="path4"
         style="fill:#000000;stroke:none;stroke-opacity:1;stroke-width:0.76160268;stroke-dasharray:none;stroke-linejoin:round;stroke-linecap:round;paint-order:normal" /><path
         d="m 47.125,50.5 h 5.7812 V 27.594 C 50.9765,27.43384 49.039,27.49634 47.125,27.7815 Z"
         id="path5"
         style="fill:#000000;stroke:none;stroke-opacity:1;stroke-width:0.76160268;stroke-dasharray:none;stroke-linejoin:round;stroke-linecap:round;paint-order:normal" /></g><g
       id="g4"
       style="fill:#000000;stroke:none;stroke-opacity:1;stroke-width:0.24338836;stroke-dasharray:none;stroke-linejoin:round;stroke-linecap:round;paint-order:normal"
       transform="matrix(4.109943,0,0,4.109943,218.99299,230.76016)"><path
         d="M 2.946,14.311 C 2.758,13.891 2.788,13.455 3.032,13.047 4.021,11.404 5.318,9.79 6.887,8.251 8.835,6.338 11.222,4.522 13.981,2.85 c 0.575,-0.349 1.297,-0.523 2.018,-0.523 0.722,0 1.443,0.174 2.02,0.523 2.757,1.671 5.144,3.488 7.094,5.401 1.568,1.54 2.865,3.153 3.854,4.796 0.244,0.407 0.274,0.844 0.086,1.264 -0.297,0.661 -1.062,1.166 -2.046,1.351 -3.652,0.687 -7.354,1.034 -11.006,1.034 -0.001,0 -0.001,0 -0.001,0 -10e-4,0 -10e-4,0 -0.002,0 -3.651,0 -7.354,-0.348 -11.006,-1.034 -0.984,-0.185 -1.749,-0.69 -2.046,-1.351 z"
         id="path1-1"
         style="fill:#000000;stroke:none;stroke-opacity:1;stroke-width:0.24338836;stroke-dasharray:none;stroke-linejoin:round;stroke-linecap:round;paint-order:normal" /><path
         d="m 28.992,28.781 v 0.539 c 0,0.195 -0.159,0.354 -0.354,0.354 H 3.361 c -0.195,0 -0.354,-0.159 -0.354,-0.354 v -0.539 c 0,-1.062 0.864,-1.926 1.926,-1.926 h 22.134 c 1.061,0 1.925,0.865 1.925,1.926 z"
         id="path2-7"
         style="fill:#000000;stroke:none;stroke-opacity:1;stroke-width:0.24338836;stroke-dasharray:none;stroke-linejoin:round;stroke-linecap:round;paint-order:normal" /><path
         d="m 18.705,26.205 h -5.41 V 22.63 c 0,-0.929 0.751,-1.685 1.675,-1.685 h 2.061 c 0.924,0 1.675,0.756 1.675,1.685 v 3.575 z"
         id="path3-1"
         style="fill:#000000;stroke:none;stroke-opacity:1;stroke-width:0.24338836;stroke-dasharray:none;stroke-linejoin:round;stroke-linecap:round;paint-order:normal" /><path
         d="m 26.455,26.205 h -7.1 V 22.63 c 0,-1.287 -1.043,-2.335 -2.325,-2.335 h -2.06 c -1.282,0 -2.325,1.048 -2.325,2.335 v 3.575 h -7.1 V 16.41 c 3.473,0.613 6.985,0.935 10.453,0.935 0.001,0 0.001,0 0.002,0 0,0 0,0 0.001,0 3.468,0 6.981,-0.322 10.454,-0.936 z"
         id="path4-1"
         style="fill:#000000;stroke:none;stroke-opacity:1;stroke-width:0.24338836;stroke-dasharray:none;stroke-linejoin:round;stroke-linecap:round;paint-order:normal" /></g></g></svg>
