<?xml version="1.0" encoding="UTF-8" standalone="no"?>
<svg
   version="1.1"
   viewBox="-5 -10 512 512"
   id="svg2"
   sodipodi:docname="move.svg"
   width="512"
   height="512"
   inkscape:export-filename="move.png"
   inkscape:export-xdpi="96"
   inkscape:export-ydpi="96"
   inkscape:version="1.4.2 (ebf0e940d0, 2025-05-08)"
   xmlns:inkscape="http://www.inkscape.org/namespaces/inkscape"
   xmlns:sodipodi="http://sodipodi.sourceforge.net/DTD/sodipodi-0.dtd"
   xmlns="http://www.w3.org/2000/svg"
   xmlns:svg="http://www.w3.org/2000/svg">
  <defs
     id="defs2" />
  <sodipodi:namedview
     id="namedview2"
     pagecolor="#505050"
     bordercolor="#ffffff"
     borderopacity="1"
     inkscape:showpageshadow="0"
     inkscape:pageopacity="0"
     inkscape:pagecheckerboard="1"
     inkscape:deskcolor="#d1d1d1"
     inkscape:zoom="1.0475656"
     inkscape:cx="241.98962"
     inkscape:cy="275.87771"
     inkscape:window-width="1920"
     inkscape:window-height="1011"
     inkscape:window-x="0"
     inkscape:window-y="0"
     inkscape:window-maximized="1"
     inkscape:current-layer="svg2" />
  <path
     d="m 503.71114,238.05412 -86.31252,-86.28976 c -7.08898,-7.08898 -19.17796,-2.06668 -19.17796,7.9554 v 48.06695 l -108.97723,-0.0228 V 98.763968 h 48.06694 c 10.00001,0 15.0222,-12.111172 7.95541,-19.177967 L 258.95326,-6.7037566 c -4.3778,-4.3778054 -11.51099,-4.3778054 -15.88919,0 L 156.75156,79.608757 c -7.0668,7.088981 -2.06668,19.177967 7.9554,19.177967 h 48.06695 V 207.78671 l -108.95448,-0.0228 v -48.11132 c 0,-10.00001 -12.111168,-15.0222 -19.177962,-7.9554 l -86.3580252,86.35802 c -4.3778058,4.37781 -4.3778058,11.51099 0,15.8892 l 86.3580252,86.35802 c 7.088981,7.08898 19.177962,2.06668 19.177962,-7.9554 v -48.11132 h 108.93172 v 108.93171 h -48.11132 c -10.00001,0 -15.0222,12.11118 -7.9554,19.17797 l 86.35802,86.35803 c 4.37781,4.3778 11.51099,4.3778 15.8892,0 l 86.35802,-86.35803 c 7.0668,-7.08898 2.06668,-19.17797 -7.9554,-19.17797 h -48.11132 l 0.0227,-108.91465 h 108.99999 v 48.06695 c 0,10.00001 12.11117,15.0222 19.17796,7.95541 l 86.31252,-86.31252 c 4.35556,-4.40005 4.35556,-11.51099 -0.0228,-15.91138 z"
     id="path1"
     style="fill:#ffffff;stroke-width:5.68893" />
  <text
     x="-80.324997"
     y="55.737499"
     font-size="5px"
     font-weight="bold"
     font-family="'Arbeit Regular', Helvetica, Arial-Unicode, Arial, Sans-serif"
     fill="#000000"
     id="text1">Created by MihiMihi</text>
  <text
     x="-80.324997"
     y="60.737499"
     font-size="5px"
     font-weight="bold"
     font-family="'Arbeit Regular', Helvetica, Arial-Unicode, Arial, Sans-serif"
     fill="#000000"
     id="text2">from Noun Project</text>
</svg>
